Music_UnovaCave_Ch1::
Music_UnovaCave_Ch1_loop:
	tempo 174
	vibrato 10, 1, 4
	duty 2
	volume 7, 7
	notetype 12, 10, 5
	callchannel Music_UnovaCave_Ch1_loop_sub_0
	callchannel Music_UnovaCave_Ch1_loop_sub_0
	octave 2
	E_ 1
	E_ 1
	E_ 1
	rest 7
	E_ 2
	D# 1
	D# 1
	D# 1
	rest 7
	D# 2
	D_ 1
	D_ 1
	D_ 1
	rest 7
	D_ 2
	C# 1
	C# 1
	C# 1
	rest 7
	C# 2
	C_ 6
	D# 6
	G# 6
	D_ 6
	octave 1
	B_ 11
	notetype 6, 10, 5
	octave 2
	C_ 1
	C# 1
	notetype 12, 10, 5
	D_ 11
	rest 1
	loopchannel 0, Music_UnovaCave_Ch1_loop
Music_UnovaCave_Ch1_loop_sub_0:
	octave 4
	D# 4
	C# 2
	G_ 4
	F_ 2
	octave 3
	B_ 6
	octave 4
	C# 6
	D# 4
	C# 2
	G_ 4
	F_ 2
	A# 6
	B_ 6
	D# 4
	C# 2
	G_ 4
	F_ 2
	octave 3
	B_ 12
	octave 4
	D# 4
	C# 2
	G_ 4
	F_ 2
	octave 3
	A_ 10
	rest 2
	endchannel
Music_UnovaCave_Ch2::
Music_UnovaCave_Ch2_loop:
	vibrato 11, 1, 5
	duty 0
	notetype 12, 5, 15
	octave 3
	callchannel Music_UnovaCave_Ch2_loop_sub_0
	callchannel Music_UnovaCave_Ch2_loop_sub_0
	C# 1
	rest 9
	C# 2
	C_ 1
	rest 9
	C_ 2
	C# 1
	rest 9
	C# 2
	octave 2
	B_ 1
	rest 9
	B_ 2
	octave 3
	C_ 6
	G_ 6
	F# 6
	C_ 6
	octave 2
	B_ 11
	notetype 6, 5, 15
	octave 3
	C_ 1
	C# 1
	notetype 12, 5, 15
	D_ 12
	loopchannel 0, Music_UnovaCave_Ch2_loop
Music_UnovaCave_Ch2_loop_sub_0:
	D# 12
	C# 12
	F# 12
	D# 12
	D# 12
	C# 12
	D# 12
	C# 12
	endchannel
Music_UnovaCave_Ch3::
Music_UnovaCave_Ch3_loop:
	notetype 12, 0, 0
	rest 16
	rest 16
	rest 16
	rest 16
	rest 16
	rest 16
	vibrato 8, 2, 6
	notetype 12, 1, 4
	octave 4
	D# 12
	rest 6
	C# 6
	D# 12
	F# 6
	D# 16
	notetype 8, 1, 4
	C# 1
	D# 1
	C# 1
	octave 3
	B_ 9
	octave 4
	C# 9
	D# 15
	E_ 1
	D# 1
	C# 1
	notetype 12, 1, 4
	octave 3
	A_ 11
	rest 1
	notetype 12, 1, 5
	octave 4
	G_ 1
	rest 1
	G_ 1
	rest 1
	G_ 1
	rest 1
	G_ 1
	rest 1
	G_ 1
	rest 1
	G_ 2
	F# 1
	rest 1
	F# 1
	rest 1
	F# 1
	rest 1
	F# 1
	rest 1
	F# 1
	rest 1
	F# 2
	F_ 1
	rest 1
	F_ 1
	rest 1
	F_ 1
	rest 1
	F_ 1
	rest 1
	F_ 1
	rest 1
	F_ 2
	E_ 1
	rest 1
	E_ 1
	rest 1
	E_ 1
	rest 1
	E_ 1
	rest 1
	E_ 1
	rest 1
	E_ 2
	C_ 4
	notetype 8, 1, 5
	octave 3
	B_ 1
	octave 4
	C_ 1
	D_ 1
	D# 3
	octave 3
	A# 3
	octave 4
	G_ 3
	F# 9
	F_ 3
	D_ 3
	octave 5
	C_ 3
	octave 4
	B_ 15
	G# 1
	F_ 1
	D_ 1
	notetype 12, 1, 5
	octave 5
	D_ 11
	rest 1
	loopchannel 0, Music_UnovaCave_Ch3_loop
