Music_CeruleanCave_Ch1::
	tempo 165
	notetype 12, 0, 0
	rest 16
	rest 16
	rest 16
	rest 16
Music_CeruleanCave_Ch1_loop:
	vibrato 10, 1, 4
	duty 2
	volume 7, 7
	notetype 12, 4, 8
	octave 4
	C_ 1
	D_ 1
	C_ 1
	D_ 1
	C_ 1
	D_ 1
	C_ 1
	D_ 1
	C_ 1
	D_ 1
	C_ 1
	D_ 1
	C_ 1
	D_ 1
	C_ 1
	D_ 1
	octave 2
	callchannel Music_CeruleanCave_Ch1_loop_sub_1
	callchannel Music_CeruleanCave_Ch1_loop_sub_3
	callchannel Music_CeruleanCave_Ch1_loop_sub_1
	F_ 1
	rest 3
	callchannel Music_CeruleanCave_Ch1_loop_sub_2
	callchannel Music_CeruleanCave_Ch1_loop_sub_0
	octave 2
	callchannel Music_CeruleanCave_Ch1_loop_sub_1
	F_ 1
	rest 1
	octave 4
	F_ 1
	F_ 1
	C# 1
	rest 1
	octave 3
	G_ 1
	octave 2
	F_ 1
	callchannel Music_CeruleanCave_Ch1_loop_sub_1
	octave 4
	C# 1
	rest 1
	octave 3
	G_ 1
	rest 1
	callchannel Music_CeruleanCave_Ch1_loop_sub_2
	callchannel Music_CeruleanCave_Ch1_loop_sub_1
	callchannel Music_CeruleanCave_Ch1_loop_sub_3
	callchannel Music_CeruleanCave_Ch1_loop_sub_1
	F_ 1
	octave 4
	D# 1
	D# 1
	C# 1
	C# 1
	octave 3
	A# 1
	A# 1
	octave 2
	F_ 1
	callchannel Music_CeruleanCave_Ch1_loop_sub_1
	callchannel Music_CeruleanCave_Ch1_loop_sub_3
	callchannel Music_CeruleanCave_Ch1_loop_sub_1
	callchannel Music_CeruleanCave_Ch1_loop_sub_3
	callchannel Music_CeruleanCave_Ch1_loop_sub_0
	loopchannel 0, Music_CeruleanCave_Ch1_loop
Music_CeruleanCave_Ch1_loop_sub_0:
	F_ 1
	rest 3
	F_ 1
	rest 3
	F_ 1
	rest 3
	F_ 1
	rest 1
	F_ 1
	rest 1
	F_ 1
	rest 1
	octave 4
	F_ 1
	rest 1
	octave 3
	G_ 1
	rest 1
	C_ 1
	rest 1
	octave 2
	F_ 1
	rest 1
	duty 0
	octave 3
	C# 1
	rest 1
	duty 2
	octave 2
	F_ 1
	rest 2
	F_ 1
	F_ 1
	rest 1
	duty 0
	octave 3
	C# 1
	rest 1
	duty 2
	octave 2
	F_ 1
	rest 2
	F_ 1
	F_ 1
	rest 1
	F_ 1
	rest 1
	F_ 1
	rest 3
	F_ 1
	rest 1
	octave 4
	F_ 1
	rest 1
	octave 3
	G_ 1
	rest 1
	C_ 1
	rest 1
	octave 2
	F_ 1
	rest 1
	duty 0
	octave 3
	C# 1
	rest 1
	duty 2
	octave 2
	F_ 1
	rest 2
	F_ 1
	F_ 1
	rest 1
	duty 0
	octave 3
	C# 1
	rest 1
	duty 2
	octave 2
	F_ 1
	rest 3
	duty 0
	octave 3
	C# 1
	rest 1
	E_ 1
	rest 1
	duty 2
	notetype 8, 11, 1
	octave 4
	D# 1
	D# 1
	D# 1
	notetype 12, 11, 1
	octave 3
	B_ 1
	F# 1
	endchannel
Music_CeruleanCave_Ch1_loop_sub_1:
	F_ 1
	rest 3
	F_ 1
	rest 3
	F_ 1
	rest 3
	F_ 1
	rest 1
	F_ 1
	rest 1
	F_ 1
	rest 3
	F_ 1
	rest 3
	endchannel
Music_CeruleanCave_Ch1_loop_sub_2:
	notetype 8, 11, 1
	octave 4
	D# 1
	D# 1
	D# 1
	notetype 12, 11, 1
	octave 3
	B_ 1
	F# 1
	octave 2
	endchannel
Music_CeruleanCave_Ch1_loop_sub_3:
	F_ 1
	rest 3
	F_ 1
	rest 2
	F_ 1
	endchannel
Music_CeruleanCave_Ch2_sub_0:
	octave 2
	F_ 3
	C# 3
	octave 1
	A_ 3
	F# 3
	notetype 12, 12, 8
	rest 3
	notetype 1, 12, 8
	octave 2
	F_ 3
	C# 3
	octave 1
	A_ 3
	F# 3
	notetype 12, 12, 8
	rest 3
	notetype 1, 12, 8
	octave 2
	F_ 3
	C# 3
	octave 1
	A_ 3
	F# 3
	notetype 12, 12, 8
	rest 3
	notetype 1, 12, 8
	octave 2
	F_ 3
	C# 3
	octave 1
	A_ 3
	F# 3
	endchannel
Music_CeruleanCave_Ch2_sub_1:
	octave 2
	F_ 3
	C# 3
	octave 1
	A_ 3
	F# 3
	endchannel
Music_CeruleanCave_Ch2::
	vibrato 18, 4, 3
	duty 2
	notetype 1, 12, 8
	callchannel Music_CeruleanCave_Ch2_sub_1
	rest 12
	callchannel Music_CeruleanCave_Ch2_sub_1
	rest 12
	octave 3
	F# 3
	D_ 3
	octave 2
	B_ 3
	A# 3
	F_ 3
	C# 3
	octave 1
	A_ 3
	F# 3
	rest 12
	callchannel Music_CeruleanCave_Ch2_sub_1
	octave 3
	A# 3
	F# 3
	D# 3
	C# 3
	A# 3
	F# 3
	D# 3
	C# 3
	A# 3
	F# 3
	D# 3
	C# 3
	A# 3
	F# 3
	D# 3
	C# 3
	F# 3
	D_ 3
	octave 2
	B_ 3
	A# 3
	rest 12
	octave 3
	C_ 3
	octave 2
	A_ 3
	F_ 3
	D_ 3
	F_ 3
	C# 3
	octave 1
	A_ 3
	F# 3
	callchannel Music_CeruleanCave_Ch2_sub_0
	rest 12
	callchannel Music_CeruleanCave_Ch2_sub_1
	rest 12
	callchannel Music_CeruleanCave_Ch2_sub_0
	notetype 12, 12, 8
	rest 2
	notetype 1, 12, 8
	callchannel Music_CeruleanCave_Ch2_sub_1
	callchannel Music_CeruleanCave_Ch2_sub_0
	rest 12
	callchannel Music_CeruleanCave_Ch2_sub_1
	rest 12
Music_CeruleanCave_Ch2_loop:
	vibrato 18, 4, 0
	notetype 12, 1, 14
	octave 4
	G_ 16
	vibrato 18, 4, 3
	notetype 12, 11, 8
	octave 1
	G_ 1
	notetype 6, 11, 8
	callchannel Music_CeruleanCave_Ch2_loop_sub_0
	callchannel Music_CeruleanCave_Ch2_loop_sub_1
	octave 1
	G_ 2
	callchannel Music_CeruleanCave_Ch2_loop_sub_0
	duty 3
	callchannel Music_CeruleanCave_Ch2_loop_sub_2
	notetype 12, 9, 8
	F# 12
	A_ 4
	A# 3
	notetype 6, 9, 8
	D# 1
	D_ 1
	C# 4
	D_ 4
	D_ 4
	D_ 4
	rest 8
	callchannel Music_CeruleanCave_Ch2_loop_sub_2
	F# 14
	F_ 1
	F# 1
	G_ 14
	F# 1
	G_ 1
	G# 12
	A# 1
	B_ 1
	octave 5
	C_ 1
	C# 1
	D_ 2
	octave 4
	A_ 2
	F# 2
	D_ 2
	octave 3
	A_ 2
	F# 2
	D_ 2
	octave 2
	A_ 2
	duty 2
	callchannel Music_CeruleanCave_Ch2_loop_sub_1
	loopchannel 0, Music_CeruleanCave_Ch2_loop
Music_CeruleanCave_Ch2_loop_sub_0:
	octave 4
	F_ 1
	F# 1
	G_ 2
	G_ 2
	A# 2
	A# 2
	E_ 4
	octave 1
	G_ 2
	rest 2
	octave 3
	A# 2
	A# 2
	A_ 2
	A_ 2
	A# 4
	octave 4
	G_ 2
	G_ 2
	A# 2
	A# 2
	octave 5
	F_ 2
	F_ 2
	E_ 2
	E_ 2
	octave 1
	G_ 2
	rest 2
	octave 5
	C# 12
	octave 4
	B_ 1
	A# 1
	A_ 1
	G# 1
	G_ 2
	rest 2
	A# 2
	A# 2
	E_ 4
	octave 1
	G_ 2
	rest 2
	octave 3
	A# 2
	A# 2
	A_ 2
	A_ 2
	A# 4
	octave 4
	G_ 2
	G_ 2
	A# 2
	octave 1
	G_ 2
	octave 5
	F_ 2
	F_ 2
	E_ 2
	E_ 2
	octave 1
	G_ 2
	rest 2
	octave 5
	G_ 8
	F# 1
	F_ 1
	E_ 1
	D# 1
	endchannel
Music_CeruleanCave_Ch2_loop_sub_1:
	octave 1
	G_ 2
	rest 6
	G_ 2
	rest 6
	G_ 2
	rest 6
	G_ 2
	rest 2
	G_ 2
	rest 2
	G_ 2
	rest 6
	G_ 2
	rest 6
	G_ 2
	rest 2
	duty 0
	octave 3
	G_ 2
	rest 2
	duty 2
	octave 1
	G_ 2
	rest 4
	G_ 2
	G_ 2
	rest 6
	G_ 2
	rest 6
	G_ 2
	rest 6
	G_ 2
	rest 2
	G_ 2
	rest 2
	G_ 2
	rest 2
	duty 0
	octave 3
	G_ 2
	duty 2
	octave 1
	G_ 2
	G_ 2
	rest 6
	duty 0
	octave 3
	G_ 2
	rest 2
	A# 2
	rest 2
	duty 2
	octave 5
	G_ 1
	rest 1
	octave 6
	C# 2
	octave 5
	A# 1
	rest 1
	octave 6
	F_ 2
	endchannel
Music_CeruleanCave_Ch2_loop_sub_2:
	octave 3
	A# 2
	octave 4
	D# 2
	G_ 2
	A_ 2
	A# 15
	B_ 1
	octave 5
	C_ 7
	octave 4
	B_ 1
	A# 8
	A_ 3
	G# 1
	G_ 12
	G_ 2
	rest 2
	D_ 1
	D# 1
	E_ 1
	F_ 1
	endchannel
Music_CeruleanCave_Ch3::
	notetype 12, 0, 0
	rest 16
	vibrato 8, 2, 6
	notetype 12, 2, 2
	octave 1
	G_ 1
	octave 3
	G_ 1
	F# 1
	F_ 1
	octave 1
	G_ 1
	octave 3
	E_ 1
	D# 1
	D_ 1
	octave 1
	G_ 1
	octave 3
	C# 1
	C_ 1
	octave 2
	B_ 1
	octave 1
	G_ 1
	octave 2
	A# 1
	octave 1
	G_ 1
	octave 2
	A_ 1
	octave 1
	G_ 1
	notetype 6, 3, 2
	octave 5
	G_ 1
	rest 1
	octave 6
	G_ 1
	rest 1
	D_ 1
	rest 1
	octave 1
	G_ 2
	rest 2
	octave 6
	G_ 1
	rest 3
	octave 1
	G_ 2
	octave 6
	D_ 1
	rest 1
	octave 1
	G_ 2
	octave 6
	G_ 1
	rest 1
	octave 1
	G_ 2
	octave 5
	G_ 1
	rest 1
	octave 6
	G_ 1
	rest 1
	octave 1
	G_ 2
	G_ 2
	octave 2
	G_ 2
	G# 2
	A_ 2
	octave 1
	G_ 2
	octave 2
	A# 2
	B_ 2
	octave 3
	C_ 2
	octave 1
	G_ 2
	octave 3
	C# 2
	D_ 2
	D# 2
	octave 1
	G_ 2
	octave 3
	E_ 2
	octave 1
	G_ 2
	octave 3
	F_ 2
Music_CeruleanCave_Ch3_loop:
	notetype 12, 3, 2
	octave 3
	G# 8
	notetype 12, 2, 2
	G# 4
	G# 4
	notetype 6, 3, 2
	octave 4
	C# 1
	callchannel Music_CeruleanCave_Ch3_loop_sub_0
	octave 4
	C# 1
	callchannel Music_CeruleanCave_Ch3_loop_sub_0
	octave 4
	A_ 1
	callchannel Music_CeruleanCave_Ch3_loop_sub_1
	A_ 1
	callchannel Music_CeruleanCave_Ch3_loop_sub_1
	C# 1
	callchannel Music_CeruleanCave_Ch3_loop_sub_0
	octave 4
	C# 1
	callchannel Music_CeruleanCave_Ch3_loop_sub_0
	callchannel Music_CeruleanCave_Ch3_loop_sub_2
	rest 2
	A_ 2
	octave 3
	D_ 2
	callchannel Music_CeruleanCave_Ch3_loop_sub_3
	callchannel Music_CeruleanCave_Ch3_loop_sub_3
	octave 2
	D_ 2
	rest 2
	A_ 2
	octave 3
	C# 2
	D_ 2
	octave 2
	A_ 2
	octave 3
	D_ 2
	A_ 2
	callchannel Music_CeruleanCave_Ch3_loop_sub_3
	F# 2
	A_ 2
	F# 2
	D_ 2
	octave 2
	G# 2
	F# 2
	D_ 2
	octave 1
	A_ 2
	callchannel Music_CeruleanCave_Ch3_loop_sub_2
	A_ 2
	D_ 2
	A_ 2
	octave 3
	D_ 2
	A_ 2
	D_ 2
	octave 2
	A_ 2
	D_ 2
	G# 2
	D_ 2
	G# 2
	octave 3
	D_ 2
	G# 2
	D_ 2
	octave 2
	G# 2
	D_ 2
	G_ 2
	D_ 2
	G_ 2
	octave 3
	D_ 2
	G_ 2
	D_ 2
	octave 2
	G_ 2
	F# 4
	D_ 4
	F# 4
	octave 1
	A_ 4
	octave 4
	A_ 1
	callchannel Music_CeruleanCave_Ch3_loop_sub_1
	A_ 1
	callchannel Music_CeruleanCave_Ch3_loop_sub_1
	loopchannel 0, Music_CeruleanCave_Ch3_loop
Music_CeruleanCave_Ch3_loop_sub_0:
	octave 3
	E_ 1
	octave 4
	C# 1
	octave 3
	E_ 1
	octave 4
	C# 1
	octave 3
	E_ 1
	octave 4
	C# 1
	octave 3
	E_ 1
	octave 4
	C# 1
	octave 3
	E_ 1
	octave 4
	C# 1
	octave 3
	E_ 1
	octave 4
	C# 1
	octave 3
	E_ 1
	octave 4
	C# 1
	octave 3
	E_ 1
	octave 4
	C# 1
	octave 3
	E_ 1
	octave 4
	C# 1
	octave 3
	E_ 1
	octave 4
	C# 1
	octave 3
	E_ 1
	octave 4
	C# 1
	octave 3
	E_ 1
	octave 4
	C# 1
	octave 3
	E_ 1
	octave 4
	C# 1
	octave 3
	E_ 1
	octave 4
	C# 1
	octave 3
	E_ 1
	octave 4
	C# 1
	octave 3
	E_ 1
	octave 4
	D_ 1
	octave 3
	F_ 1
	octave 4
	D_ 1
	octave 3
	F_ 1
	octave 4
	D_ 1
	octave 3
	F_ 1
	octave 4
	D_ 1
	octave 3
	F_ 1
	octave 4
	D_ 1
	octave 3
	F_ 1
	octave 4
	D_ 1
	octave 3
	F_ 1
	octave 4
	D_ 1
	octave 3
	F_ 1
	octave 4
	D_ 1
	octave 3
	F_ 1
	octave 4
	D_ 1
	octave 3
	F_ 1
	octave 4
	D_ 1
	octave 3
	F_ 1
	octave 4
	D_ 1
	octave 3
	F_ 1
	octave 4
	D_ 1
	octave 3
	F_ 1
	octave 4
	D_ 1
	octave 3
	F_ 1
	octave 4
	D_ 1
	octave 3
	F_ 1
	octave 4
	D_ 1
	octave 3
	F_ 1
	octave 4
	D_ 1
	octave 3
	F_ 1
	endchannel
Music_CeruleanCave_Ch3_loop_sub_1:
	C# 1
	A_ 1
	C# 1
	A_ 1
	C# 1
	A_ 1
	C# 1
	A_ 1
	C# 1
	A_ 1
	C# 1
	A_ 1
	C# 1
	A_ 1
	C# 1
	A_ 1
	C# 1
	A_ 1
	C# 1
	A_ 1
	C# 1
	A_ 1
	C# 1
	A_ 1
	C# 1
	A_ 1
	C# 1
	A_ 1
	C# 1
	A_ 1
	C# 1
	A# 1
	D_ 1
	A# 1
	D_ 1
	A# 1
	D_ 1
	A# 1
	D_ 1
	A# 1
	D_ 1
	A# 1
	D_ 1
	A# 1
	D_ 1
	A# 1
	D_ 1
	A# 1
	D_ 1
	A# 1
	D_ 1
	A# 1
	D_ 1
	A# 1
	D_ 1
	A# 1
	D_ 1
	A# 1
	D_ 1
	A# 1
	D_ 1
	A# 1
	D_ 1
	endchannel
Music_CeruleanCave_Ch3_loop_sub_2:
	octave 2
	D# 2
	rest 2
	A# 2
	octave 3
	D# 2
	octave 2
	D# 2
	rest 2
	A# 2
	octave 3
	D# 2
	octave 2
	D# 2
	rest 2
	A# 2
	octave 3
	D# 2
	octave 2
	D# 2
	rest 2
	A# 2
	octave 3
	D_ 2
	D# 2
	octave 2
	A# 2
	octave 3
	D# 2
	A# 2
	octave 2
	D# 2
	rest 2
	A# 2
	octave 3
	D# 2
	octave 2
	D# 2
	rest 2
	A# 2
	octave 3
	D# 2
	octave 2
	D# 2
	rest 2
	D_ 2
	F# 2
	D_ 2
	endchannel
Music_CeruleanCave_Ch3_loop_sub_3:
	octave 2
	D_ 2
	rest 2
	A_ 2
	octave 3
	D_ 2
	endchannel
Music_CeruleanCave_Ch4_sub_0:
	mutedsnare1 1
	cymbal3 2
	mutedsnare1 1
	mutedsnare1 1
	mutedsnare1 1
	mutedsnare1 1
	mutedsnare1 1
	mutedsnare1 1
	mutedsnare1 1
	mutedsnare1 1
	mutedsnare1 1
	mutedsnare1 1
	mutedsnare1 1
	mutedsnare1 1
	mutedsnare1 1
	mutedsnare1 1
	mutedsnare1 1
	mutedsnare1 1
	mutedsnare1 1
	mutedsnare1 1
	endchannel
Music_CeruleanCave_Ch4::
	toggleperfectpitch
	dspeed 12
	cymbal3 2
	cymbal3 2
	cymbal3 1
	cymbal3 2
	cymbal3 1
	dspeed 8
	mutedsnare1 1
	mutedsnare1 1
	mutedsnare1 1
	dspeed 12
	cymbal3 1
	callchannel Music_CeruleanCave_Ch4_sub_0
	mutedsnare1 1
	mutedsnare1 1
	mutedsnare1 1
	mutedsnare1 1
	mutedsnare1 1
	mutedsnare1 1
	mutedsnare1 1
	mutedsnare1 1
	mutedsnare1 1
	mutedsnare1 1
	mutedsnare1 1
	callchannel Music_CeruleanCave_Ch4_sub_0
Music_CeruleanCave_Ch4_loop:
	rest 16
	mutedsnare1 1
	mutedsnare1 1
	mutedsnare1 1
	mutedsnare1 1
	mutedsnare1 1
	mutedsnare1 1
	mutedsnare1 1
	mutedsnare1 1
	mutedsnare1 1
	mutedsnare1 1
	mutedsnare1 1
	mutedsnare1 1
	mutedsnare1 1
	mutedsnare1 1
	mutedsnare1 1
	mutedsnare1 1
	mutedsnare1 1
	mutedsnare1 1
	mutedsnare1 1
	mutedsnare1 1
	mutedsnare1 1
	mutedsnare1 1
	mutedsnare1 1
	mutedsnare1 1
	mutedsnare1 1
	mutedsnare1 1
	mutedsnare1 1
	mutedsnare1 1
	callchannel Music_CeruleanCave_Ch4_loop_sub_0
	callchannel Music_CeruleanCave_Ch4_loop_sub_0
	callchannel Music_CeruleanCave_Ch4_loop_sub_0
	mutedsnare1 1
	mutedsnare1 1
	mutedsnare1 1
	mutedsnare1 1
	mutedsnare1 1
	mutedsnare1 1
	mutedsnare1 1
	mutedsnare1 1
	mutedsnare1 1
	mutedsnare1 1
	mutedsnare1 1
	mutedsnare1 1
	mutedsnare1 1
	mutedsnare1 1
	mutedsnare1 1
	mutedsnare1 1
	mutedsnare1 1
	mutedsnare1 1
	mutedsnare1 1
	mutedsnare1 1
	mutedsnare1 1
	mutedsnare1 1
	mutedsnare1 1
	mutedsnare1 1
	mutedsnare1 1
	mutedsnare1 1
	mutedsnare1 1
	mutedsnare1 1
	mutedsnare1 1
	mutedsnare1 1
	mutedsnare1 1
	mutedsnare1 1
	mutedsnare1 1
	mutedsnare1 1
	mutedsnare1 1
	mutedsnare1 1
	mutedsnare1 1
	mutedsnare1 1
	mutedsnare1 1
	mutedsnare1 1
	mutedsnare1 1
	mutedsnare1 1
	mutedsnare1 1
	mutedsnare1 1
	mutedsnare1 1
	mutedsnare1 1
	mutedsnare1 1
	mutedsnare1 1
	mutedsnare1 1
	mutedsnare1 1
	mutedsnare1 1
	mutedsnare1 1
	mutedsnare1 1
	mutedsnare1 1
	mutedsnare1 1
	mutedsnare1 1
	mutedsnare1 1
	mutedsnare1 1
	mutedsnare1 1
	mutedsnare1 1
	mutedsnare1 1
	mutedsnare1 1
	mutedsnare1 1
	mutedsnare1 1
	mutedsnare1 1
	mutedsnare1 1
	mutedsnare1 1
	mutedsnare1 1
	mutedsnare1 1
	mutedsnare1 1
	mutedsnare1 1
	mutedsnare1 1
	mutedsnare1 1
	mutedsnare1 1
	mutedsnare1 1
	mutedsnare1 1
	mutedsnare1 1
	mutedsnare1 1
	mutedsnare1 1
	mutedsnare1 1
	mutedsnare1 1
	mutedsnare1 1
	mutedsnare1 1
	mutedsnare1 1
	mutedsnare1 1
	mutedsnare1 1
	mutedsnare1 1
	mutedsnare1 1
	mutedsnare1 1
	mutedsnare1 1
	mutedsnare1 1
	mutedsnare1 1
	mutedsnare1 1
	mutedsnare1 1
	mutedsnare1 1
	mutedsnare1 1
	mutedsnare1 1
	mutedsnare1 1
	mutedsnare1 1
	mutedsnare1 1
	mutedsnare1 1
	mutedsnare1 1
	mutedsnare1 1
	mutedsnare1 1
	mutedsnare1 1
	mutedsnare1 1
	mutedsnare1 1
	mutedsnare1 1
	mutedsnare1 1
	mutedsnare1 1
	mutedsnare1 1
	mutedsnare1 1
	mutedsnare1 1
	mutedsnare1 1
	mutedsnare1 1
	mutedsnare1 1
	mutedsnare1 1
	mutedsnare1 1
	mutedsnare1 1
	mutedsnare1 1
	mutedsnare1 1
	mutedsnare1 1
	mutedsnare1 1
	mutedsnare1 1
	mutedsnare1 1
	mutedsnare1 1
	mutedsnare1 1
	mutedsnare1 1
	mutedsnare1 2
	mutedsnare1 1
	mutedsnare1 1
	mutedsnare1 1
	mutedsnare1 1
	mutedsnare1 1
	mutedsnare1 1
	mutedsnare1 1
	mutedsnare1 1
	mutedsnare1 1
	mutedsnare1 1
	mutedsnare1 1
	mutedsnare1 1
	mutedsnare1 1
	mutedsnare1 1
	mutedsnare1 1
	mutedsnare1 1
	mutedsnare1 1
	mutedsnare1 1
	mutedsnare1 1
	mutedsnare1 1
	mutedsnare1 1
	mutedsnare1 1
	mutedsnare1 1
	mutedsnare1 1
	mutedsnare1 1
	mutedsnare1 1
	mutedsnare1 1
	mutedsnare1 1
	mutedsnare1 1
	mutedsnare1 1
	dspeed 8
	mutedsnare1 1
	mutedsnare1 1
	mutedsnare1 1
	dspeed 12
	mutedsnare1 1
	mutedsnare1 1
	loopchannel 0, Music_CeruleanCave_Ch4_loop
Music_CeruleanCave_Ch4_loop_sub_0:
	cymbal3 2
	mutedsnare1 1
	mutedsnare1 1
	mutedsnare1 1
	mutedsnare1 1
	mutedsnare1 1
	mutedsnare1 1
	mutedsnare1 1
	mutedsnare1 1
	mutedsnare1 1
	mutedsnare1 1
	mutedsnare1 1
	mutedsnare1 1
	mutedsnare1 1
	mutedsnare1 1
	mutedsnare1 1
	mutedsnare1 1
	mutedsnare1 1
	mutedsnare1 1
	mutedsnare1 1
	mutedsnare1 1
	mutedsnare1 1
	mutedsnare1 1
	mutedsnare1 1
	mutedsnare1 1
	mutedsnare1 1
	mutedsnare1 1
	mutedsnare1 1
	mutedsnare1 1
	mutedsnare1 1
	mutedsnare1 1
	dspeed 8
	mutedsnare1 1
	mutedsnare1 1
	mutedsnare1 1
	dspeed 12
	mutedsnare1 1
	mutedsnare1 1
	mutedsnare1 1
	mutedsnare1 1
	mutedsnare1 1
	mutedsnare1 1
	mutedsnare1 1
	mutedsnare1 1
	mutedsnare1 1
	mutedsnare1 1
	mutedsnare1 1
	mutedsnare1 1
	mutedsnare1 1
	mutedsnare1 1
	mutedsnare1 1
	mutedsnare1 1
	mutedsnare1 1
	mutedsnare1 1
	mutedsnare1 1
	mutedsnare1 1
	mutedsnare1 1
	mutedsnare1 1
	mutedsnare1 1
	mutedsnare1 1
	mutedsnare1 1
	mutedsnare1 1
	mutedsnare1 1
	mutedsnare1 1
	mutedsnare1 1
	mutedsnare1 1
	endchannel