Music_DiglettCave_Ch1::
	tempo 300
	volume 7, 7
	notetype 6, 8, 3
	duty 2
	rest 8
	octave 6
	C_ 2
	octave 2
	G_ 1
	rest 1
	A_ 1
	rest 1
	G_ 1
	rest 1
	A# 1
	rest 1
	G_ 1
	rest 1
	B_ 1
	rest 1
	G_ 1
	rest 1

Music_DiglettCave_branch_44ce1:
	duty 3
	callchannel Music_DiglettCave_branch_44d6e
	callchannel Music_DiglettCave_branch_44d6e
	callchannel Music_DiglettCave_branch_44d8e
	callchannel Music_DiglettCave_branch_44d8e
	callchannel Music_DiglettCave_branch_44d6e
	callchannel Music_DiglettCave_branch_44d6e
	callchannel Music_DiglettCave_branch_44d8e
	octave 2
	A# 1
	rest 1
	A# 1
	rest 1
	octave 3
	G_ 1
	rest 1
	G_ 1
	rest 1
	F_ 1
	rest 1
	F_ 1
	rest 1
	G_ 1
	rest 1
	F_ 2
	rest 2
	octave 4
	F_ 1
	rest 1
	F_ 1
	rest 1
	F_ 1
	rest 1
	F_ 1
	rest 1
	F_ 1
	rest 1
	F_ 1
	rest 1
	F_ 1
	rest 1
	notetype 12, 8, 3
	rest 16
	rest 16
	rest 16
	rest 16
	notetype 6, 8, 3
	duty 0

Music_DiglettCave_branch_44d25:
	octave 2
	F_ 1
	rest 1
	F_ 1
	rest 1
	F_ 1
	rest 1
	F_ 1
	rest 1
	F_ 1
	rest 1
	F_ 1
	rest 1
	F_ 1
	rest 1
	F_ 3
	rest 1
	F_ 1
	rest 1
	F_ 1
	rest 1
	F_ 1
	rest 1
	F_ 1
	rest 1
	F_ 1
	rest 1
	F_ 1
	rest 1
	F_ 1
	rest 1
	loopchannel 2, Music_DiglettCave_branch_44d25

Music_DiglettCave_branch_44d48:
	A# 1
	rest 1
	A# 1
	rest 1
	A# 1
	rest 1
	A# 1
	rest 1
	A# 1
	rest 1
	A# 1
	rest 1
	A# 1
	rest 1
	A# 3
	rest 1
	A# 1
	rest 1
	A# 1
	rest 1
	A# 1
	rest 1
	A# 1
	rest 1
	A# 1
	rest 1
	A# 1
	rest 1
	A# 1
	rest 1
	loopchannel 2, Music_DiglettCave_branch_44d48
	loopchannel 0, Music_DiglettCave_branch_44ce1


Music_DiglettCave_branch_44d6e:
	F_ 1
	rest 1
	F_ 1
	rest 1
	octave 3
	D_ 1
	rest 1
	D_ 1
	rest 1
	C_ 1
	rest 1
	C_ 1
	rest 1
	D_ 1
	rest 1
	C_ 3
	rest 1
	C_ 1
	rest 1
	D_ 1
	rest 1
	D_ 1
	rest 1
	C_ 1
	rest 1
	C_ 1
	rest 1
	D_ 1
	rest 1
	C_ 1
	rest 1
	endchannel


Music_DiglettCave_branch_44d8e:
	octave 2
	A# 1
	rest 1
	A# 1
	rest 1
	octave 3
	G_ 1
	rest 1
	G_ 1
	rest 1
	F_ 1
	rest 1
	F_ 1
	rest 1
	G_ 1
	rest 1
	F_ 3
	rest 1
	F_ 1
	rest 1
	G_ 1
	rest 1
	G_ 1
	rest 1
	F_ 1
	rest 1
	F_ 1
	rest 1
	G_ 1
	rest 1
	F_ 1
	rest 1
	endchannel

Music_DiglettCave_Ch2::
	notetype 6, 11, 3
	vibrato 9, 3, 4
	duty 2
	rest 8
	octave 5
	C_ 2
	duty 3
	octave 2
	C_ 1
	rest 1
	C# 1
	rest 1
	C_ 1
	rest 1
	D# 1
	rest 1
	C_ 1
	rest 1
	E_ 1
	rest 1
	C_ 1
	rest 1

Music_DiglettCave_branch_44dce:
	duty 2
	callchannel Music_DiglettCave_branch_44eaf
	octave 3
	F_ 1
	rest 1
	F_ 1
	rest 1
	octave 4
	G_ 1
	G# 3
	F_ 6
	rest 2
	D_ 1
	rest 1
	G# 1
	rest 1
	D_ 1
	rest 1
	G_ 1
	rest 1
	D_ 1
	rest 1
	F# 1
	rest 1
	octave 3
	A# 1
	rest 1
	B_ 1
	rest 1
	callchannel Music_DiglettCave_branch_44eaf
	octave 3
	F_ 1
	rest 1
	F_ 1
	rest 1
	octave 4
	G_ 1
	G# 3
	F_ 6
	rest 2
	D_ 1
	rest 1
	octave 5
	D_ 1
	rest 1
	D_ 1
	rest 1
	octave 4
	D_ 1
	rest 1
	octave 5
	D_ 1
	rest 1
	D_ 1
	rest 1
	octave 4
	D_ 1
	rest 1
	octave 5
	D_ 1
	rest 1
	duty 0

Music_DiglettCave_branch_44e16:
	octave 1
	F_ 1
	rest 1
	F_ 1
	rest 1
	octave 2
	C_ 1
	rest 1
	C_ 1
	rest 1
	octave 1
	F_ 1
	rest 1
	F_ 1
	rest 1
	octave 2
	C_ 1
	rest 1
	D# 3
	rest 1
	D# 1
	rest 1
	D_ 1
	rest 1
	D_ 1
	rest 1
	C_ 1
	rest 1
	C_ 1
	rest 1
	octave 1
	B_ 1
	rest 1
	octave 2
	C_ 1
	rest 1
	loopchannel 2, Music_DiglettCave_branch_44e16

Music_DiglettCave_branch_44e3e:
	octave 1
	A# 1
	rest 1
	A# 1
	rest 1
	octave 2
	F_ 1
	rest 1
	F_ 1
	rest 1
	octave 1
	A# 1
	rest 1
	A# 1
	rest 1
	octave 2
	F_ 1
	rest 1
	G# 3
	rest 1
	G# 1
	rest 1
	G_ 1
	rest 1
	G_ 1
	rest 1
	F_ 1
	rest 1
	F_ 1
	rest 1
	E_ 1
	rest 1
	F_ 1
	rest 1
	loopchannel 2, Music_DiglettCave_branch_44e3e
	duty 2

Music_DiglettCave_branch_44e66:
	octave 3
	C_ 1
	rest 1
	C_ 1
	rest 1
	D_ 1
	rest 1
	D_ 1
	rest 1
	C_ 1
	rest 1
	C_ 1
	rest 1
	D_ 1
	rest 1
	C_ 3
	rest 1
	C_ 1
	rest 1
	D_ 1
	rest 1
	D_ 1
	rest 1
	C_ 1
	rest 1
	C_ 1
	rest 1
	D_ 1
	rest 1
	C_ 1
	rest 1
	loopchannel 2, Music_DiglettCave_branch_44e66

Music_DiglettCave_branch_44e89:
	F_ 1
	rest 1
	F_ 1
	rest 1
	G_ 1
	rest 1
	G_ 1
	rest 1
	F_ 1
	rest 1
	F_ 1
	rest 1
	G_ 1
	rest 1
	F_ 3
	rest 1
	F_ 1
	rest 1
	G_ 1
	rest 1
	G_ 1
	rest 1
	F_ 1
	rest 1
	F_ 1
	rest 1
	G_ 1
	rest 1
	F_ 1
	rest 1
	loopchannel 2, Music_DiglettCave_branch_44e89
	loopchannel 0, Music_DiglettCave_branch_44dce


Music_DiglettCave_branch_44eaf:
	octave 3
	C_ 1
	rest 1
	C_ 1
	rest 1
	B_ 1
	octave 4
	C_ 3
	octave 3
	F_ 6
	rest 2
	G# 1
	rest 1
	F_ 1
	rest 1
	B_ 1
	rest 1
	octave 4
	C_ 2
	rest 2
	octave 3
	D# 2
	rest 2
	C_ 2
	C_ 1
	rest 1
	C_ 1
	rest 1
	B_ 1
	octave 4
	C_ 3
	octave 3
	F_ 6
	rest 2
	G# 1
	rest 1
	F_ 1
	rest 1
	B_ 1
	rest 1
	octave 4
	C_ 2
	rest 2
	D# 2
	D_ 1
	rest 1
	C_ 2
	octave 3
	F_ 1
	rest 1
	F_ 1
	rest 1
	octave 4
	G_ 1
	G# 3
	F_ 6
	rest 2
	G# 1
	rest 1
	F_ 1
	rest 1
	B_ 1
	rest 1
	octave 5
	C_ 2
	rest 2
	octave 4
	D# 2
	D_ 1
	rest 1
	C_ 2
	endchannel

Music_DiglettCave_Ch3::
	notetype 6, 8, 3
	rest 8
	octave 4
	E_ 2
	octave 1
	C_ 1
	rest 1
	D_ 1
	rest 1
	C_ 1
	rest 1
	D# 1
	rest 1
	C_ 1
	rest 1
	E_ 1
	rest 1
	C_ 1
	rest 1

Music_DiglettCave_branch_44f10:
	callchannel Music_DiglettCave_branch_44f69
	callchannel Music_DiglettCave_branch_44f69
	callchannel Music_DiglettCave_branch_44f8e
	callchannel Music_DiglettCave_branch_44f8e
	callchannel Music_DiglettCave_branch_44f69
	callchannel Music_DiglettCave_branch_44f69
	callchannel Music_DiglettCave_branch_44f8e
	octave 1
	A# 1
	rest 1
	A# 1
	rest 1
	octave 2
	F_ 1
	rest 1
	F_ 1
	rest 1
	octave 1
	A# 1
	rest 1
	A# 1
	rest 1
	octave 2
	F_ 1
	rest 1
	G# 2
	D_ 1
	rest 1
	G# 1
	rest 1
	octave 3
	G# 1
	rest 1
	octave 2
	D_ 1
	rest 1
	G# 1
	rest 1
	octave 3
	G# 1
	rest 1
	octave 2
	D_ 1
	rest 1
	octave 3
	G# 1
	rest 1
	callchannel Music_DiglettCave_branch_44f69
	callchannel Music_DiglettCave_branch_44f69
	callchannel Music_DiglettCave_branch_44f8e
	callchannel Music_DiglettCave_branch_44f8e
	callchannel Music_DiglettCave_branch_44f69
	callchannel Music_DiglettCave_branch_44f69
	callchannel Music_DiglettCave_branch_44f8e
	callchannel Music_DiglettCave_branch_44f8e
	loopchannel 0, Music_DiglettCave_branch_44f10


Music_DiglettCave_branch_44f69:
	octave 1
	F_ 1
	rest 1
	F_ 1
	rest 1
	octave 2
	C_ 1
	rest 1
	C_ 1
	rest 1
	octave 1
	F_ 1
	rest 1
	F_ 1
	rest 1
	octave 2
	C_ 1
	rest 1
	D# 3
	rest 1
	D# 1
	rest 1
	D_ 1
	rest 1
	D_ 1
	rest 1
	C_ 1
	rest 1
	C_ 1
	rest 1
	octave 1
	B_ 1
	rest 1
	octave 2
	C_ 1
	rest 1
	endchannel


Music_DiglettCave_branch_44f8e:
	octave 1
	A# 1
	rest 1
	A# 1
	rest 1
	octave 2
	F_ 1
	rest 1
	F_ 1
	rest 1
	octave 1
	A# 1
	rest 1
	A# 1
	rest 1
	octave 2
	F_ 1
	rest 1
	G# 3
	rest 1
	G# 1
	rest 1
	G_ 1
	rest 1
	G_ 1
	rest 1
	F_ 1
	rest 1
	F_ 1
	rest 1
	E_ 1
	rest 1
	F_ 1
	rest 1
	endchannel

Music_DiglettCave_Ch4::
	toggleperfectpitch
	notetype 12, 8, 15
	cymbal1 1
	cymbal1 1
	snare9 1
	snare9 1
	snare9 2
	snare9 2
	snare9 2
	cymbal1 2
	cymbal1 2
	cymbal1 2
	cymbal1 2
	snare9 2
	snare9 2
	snare9 2
Music_DiglettCave_branch_44fc3:
	callchannel Music_DiglettCave_branch_4501f
	callchannel Music_DiglettCave_branch_4502f
	callchannel Music_DiglettCave_branch_4501f
	callchannel Music_DiglettCave_branch_4501f
	callchannel Music_DiglettCave_branch_4501f
	callchannel Music_DiglettCave_branch_4502f
	callchannel Music_DiglettCave_branch_4501f
	cymbal1 2
	cymbal1 2
	snare9 2
	snare9 2
	cymbal1 2
	cymbal1 2
	snare9 2
	cymbal1 2
	cymbal1 2
	snare9 2
	snare9 2
	cymbal1 2
	snare9 2
	snare9 2
	snare9 1
	snare9 1
	snare9 2
	callchannel Music_DiglettCave_branch_4501f
	callchannel Music_DiglettCave_branch_4502f
	callchannel Music_DiglettCave_branch_4501f
	cymbal1 2
	cymbal1 2
	snare9 2
	snare9 2
	cymbal1 2
	cymbal1 2
	snare9 2
	cymbal1 2
	cymbal1 2
	snare9 2
	snare9 2
	cymbal1 2
	snare9 2
	snare9 2
	cymbal1 2
	snare9 2
	callchannel Music_DiglettCave_branch_4501f
	callchannel Music_DiglettCave_branch_4502f
	callchannel Music_DiglettCave_branch_4501f
	cymbal1 2
	cymbal1 2
	snare9 2
	snare9 2
	cymbal1 2
	cymbal1 2
	snare9 2
	cymbal1 2
	cymbal1 2
	snare9 2
	snare9 2
	cymbal1 2
	snare9 2
	cymbal1 2
	snare9 2
	snare9 2
	loopchannel 0, Music_DiglettCave_branch_44fc3


Music_DiglettCave_branch_4501f:
	cymbal1 2
	cymbal1 2
	snare9 2
	snare9 2
	cymbal1 2
	cymbal1 2
	snare9 2
	cymbal1 4
	cymbal1 2
	snare9 2
	snare9 2
	cymbal1 2
	cymbal1 2
	snare9 2
	snare9 2
	endchannel


Music_DiglettCave_branch_4502f:
	cymbal1 2
	cymbal1 2
	snare9 2
	snare9 2
	cymbal1 2
	cymbal1 2
	snare9 2
	cymbal1 4
	cymbal1 2
	snare9 2
	snare9 2
	cymbal1 2
	cymbal1 2
	snare9 1
	snare9 1
	snare9 2
	endchannel
