Music_DarkCave_Ch1::
	tempo 128
	volume 7, 7
	duty 3
	vibrato 11, 1, 5
	notetype 12, 10, 7
Music_DarkCave_branch_ea2dc::
	rest 16
	loopchannel 4, Music_DarkCave_branch_ea2dc
	octave 3
	D# 16
	D_ 16
	C# 16
	C_ 16
Music_DarkCave_branch_ea2e8::
	callchannel Music_DarkCave_branch_ea333
	loopchannel 3, Music_DarkCave_branch_ea2e8
	G# 8
	D# 8
	G_ 8
	D_ 8
	F_ 8
	C# 8
	D# 8
	G_ 8
	G# 8
	D# 8
	G_ 8
	D_ 8
	F_ 8
	C# 8
	D# 8
	C_ 8
Music_DarkCave_branch_ea303::
	callchannel Music_DarkCave_branch_ea333
	loopchannel 2, Music_DarkCave_branch_ea303
	rest 16
	rest 8
	octave 2
	F_ 2
	G_ 2
	G# 4
	octave 3
	D# 16
	rest 8
	octave 2
	G# 2
	G_ 2
	G# 4
	octave 3
	D# 16
	G_ 2
	rest 6
	F_ 2
	G_ 2
	G# 4
	G_ 16
	F_ 2
	rest 6
	G# 2
	G_ 2
	G# 4
Music_DarkCave_branch_ea328::
	callchannel Music_DarkCave_branch_ea333
	loopchannel 2, Music_DarkCave_branch_ea328
	loopchannel 0, Music_DarkCave_branch_ea2e8

Music_DarkCave_branch_ea333::
	octave 4
	D# 2
	octave 3
	G# 2
	octave 4
	C_ 2
	D# 2
	octave 3
	G# 2
	octave 4
	C_ 2
	D# 2
	C_ 2
	D_ 2
	octave 3
	G_ 2
	A# 2
	octave 4
	D_ 2
	octave 3
	G_ 2
	A# 2
	octave 4
	D_ 2
	octave 3
	A# 2
	octave 4
	C# 2
	octave 3
	F_ 2
	A# 2
	octave 4
	C# 2
	octave 3
	F_ 2
	A# 2
	octave 4
	C# 2
	octave 3
	A# 2
	octave 4
	C_ 2
	octave 3
	G_ 2
	A# 2
	octave 4
	C_ 2
	octave 3
	G_ 2
	A# 2
	octave 4
	C_ 2
	octave 3
	A# 2
	endchannel

Music_DarkCave_Ch2::
	duty 1
	vibrato 12, 3, 6
	notetype 12, 10, 7
Music_DarkCave_branch_ea374::
	rest 16
	loopchannel 4, Music_DarkCave_branch_ea374
	octave 3
	G_ 16
	A# 16
	F_ 16
	G_ 16
Music_DarkCave_branch_ea37e::
	rest 16
	loopchannel 4, Music_DarkCave_branch_ea37e
	rest 8
	octave 5
	C_ 8
	D_ 2
	C_ 2
	octave 4
	A# 2
	G_ 4
	A# 2
	octave 5
	D_ 4
	C# 4
	C# 12
	C_ 8
	C_ 8
	rest 8
	C_ 8
	D_ 2
	C_ 2
	octave 4
	A# 2
	G_ 2
	G_ 2
	A# 2
	octave 5
	D_ 4
	C# 12
	C_ 2
	C# 2
	D# 10
	D# 6
	octave 4
	F_ 4
	D# 2
	D_ 2
	D# 4
	D_ 2
	C_ 2
	D_ 2
	C_ 2
	octave 3
	A# 2
	octave 4
	C_ 2
	D_ 4
	C_ 2
	octave 3
	A# 2
	octave 4
	C# 8
	octave 3
	A# 8
	octave 4
	D# 2
	D_ 2
	C_ 2
	octave 3
	A# 2
	octave 4
	C_ 8
	F_ 4
	D# 2
	D_ 2
	D# 4
	D_ 2
	C_ 2
	D_ 2
	C_ 2
	octave 3
	A# 2
	octave 4
	C_ 2
	D_ 4
	C_ 2
	octave 3
	A# 2
	octave 4
	C# 4
	C_ 2
	C# 2
	C_ 2
	C# 2
	octave 3
	A# 2
	octave 4
	C# 2
	C_ 8
	C_ 8
	rest 8
	octave 5
	C_ 8
	D_ 2
	C_ 2
	octave 4
	A# 2
	G_ 4
	A# 2
	octave 5
	D_ 4
	C# 8
	C# 8
	C_ 8
	C_ 8
	rest 8
	C_ 8
	D_ 2
	C_ 2
	octave 4
	A# 2
	G_ 2
	G_ 2
	A# 2
	octave 5
	D_ 4
	C# 8
	C# 8
	C_ 8
	C_ 8
	rest 16
	rest 8
	octave 3
	A# 2
	octave 4
	C_ 2
	C# 4
	C_ 16
	rest 8
	C# 2
	C_ 2
	C# 4
	C_ 16
	D# 8
	octave 3
	A# 2
	octave 4
	C_ 2
	C# 4
	C_ 16
	octave 3
	A# 8
	octave 4
	C# 2
	C_ 2
	C# 16
	rest 4
	rest 16
	rest 16
	rest 16
	octave 5
	D# 16
	D_ 16
	F_ 16
	D# 16
	loopchannel 0, Music_DarkCave_branch_ea37e

Music_DarkCave_Ch3::
	notetype 12, 2, 7
Music_DarkCave_branch_ea471::
	callchannel Music_DarkCave_branch_ea4ce
	loopchannel 2, Music_DarkCave_branch_ea471
Music_DarkCave_branch_ea478::
	callchannel Music_DarkCave_branch_ea4ce
	loopchannel 7, Music_DarkCave_branch_ea478
	callchannel Music_DarkCave_branch_ea4c3
	octave 3
	C_ 4
	G_ 2
	D# 4
	G_ 2
	D# 4
	F_ 2
	rest 2
	octave 2
	A# 12
	callchannel Music_DarkCave_branch_ea4c3
	octave 3
	C_ 4
	G_ 2
	D# 4
	G_ 2
	D# 4
	F_ 2
	rest 2
	octave 2
	A# 4
	octave 3
	C# 2
	C_ 2
	C# 4
	callchannel Music_DarkCave_branch_ea4a7
	callchannel Music_DarkCave_branch_ea4a7
	loopchannel 0, Music_DarkCave_branch_ea478

Music_DarkCave_branch_ea4a7::
	octave 3
	C_ 4
	G_ 2
	D# 4
	G_ 2
	F_ 4
	D# 2
	rest 2
	octave 2
	A# 4
	A# 2
	octave 3
	C_ 2
	C# 4
	C_ 4
	G_ 2
	D# 4
	G_ 2
	D# 4
	F_ 2
	rest 2
	octave 2
	A# 4
	octave 3
	C# 2
	C_ 2
	C# 4
	endchannel

Music_DarkCave_branch_ea4c3::
	octave 3
	C_ 4
	G_ 2
	D# 4
	G_ 2
	F_ 4
	D# 2
	rest 2
	octave 2
	A# 12
	endchannel

Music_DarkCave_branch_ea4ce::
	octave 2
	C_ 4
	G_ 2
	D# 4
	G_ 2
	F_ 4
	D# 2
	rest 2
	octave 1
	A# 4
	A# 2
	octave 2
	C_ 2
	C# 4
	C_ 4
	G_ 2
	D# 4
	G_ 2
	D# 4
	F_ 2
	rest 2
	octave 1
	A# 4
	octave 2
	C# 2
	C_ 2
	C# 4
	endchannel

Music_DarkCave_Ch4::
	toggleperfectpitch
	notetype 12, 1, 1
Music_DarkCave_branch_ea4ee::
	snare7 8
	snare7 8
	snare6 4
	snare6 4
	snare3 2
	snare3 2
	snare6 4
	snare7 8
	snare7 8
	snare6 4
	snare7 8
	snare3 2
	snare3 2
	loopchannel 0, Music_DarkCave_branch_ea4ee
