Music_MobileAdapter_Ch1::
	tempo 165
	notetype 12, 0, 0
	rest 8
	vibrato 9, 2, 3
	duty 2
	volume 7, 7
	notetype 12, 13, 2
	octave 3
	G_ 1
	octave 4
	D_ 1
	E_ 1
	rest 1
	D_ 1
	rest 1
	C# 4
Music_MobileAdapter_Ch1_loop:
	octave 4
	callchannel Music_MobileAdapter_Ch1_loop_sub_2
	octave 3
	callchannel Music_MobileAdapter_Ch1_loop_sub_0
	D_ 2
	octave 3
	A_ 1
	G_ 1
	A_ 2
	F# 1
	E_ 1
	F# 2
	D_ 1
	C# 1
	D_ 2
	callchannel Music_MobileAdapter_Ch1_loop_sub_2
	callchannel Music_MobileAdapter_Ch1_loop_sub_0
	octave 3
	B_ 1
	octave 4
	D_ 1
	F# 1
	E_ 1
	D_ 1
	C# 1
	D_ 2
	octave 3
	A_ 2
	octave 4
	D_ 4
	octave 5
	C# 1
	rest 1
	C# 1
	rest 1
	C# 1
	rest 1
	octave 4
	C# 8
	F# 1
	G_ 1
	A_ 2
	G# 2
	A_ 2
	E_ 3
	octave 3
	A_ 3
	E_ 4
	octave 4
	G_ 1
	rest 1
	G_ 1
	rest 1
	G_ 1
	rest 1
	octave 3
	B_ 8
	B_ 1
	octave 5
	C_ 1
	C# 2
	octave 4
	B_ 2
	A_ 2
	octave 5
	C# 3
	C# 3
	octave 3
	A_ 4
	octave 4
	F# 1
	rest 1
	F# 1
	rest 1
	F# 1
	rest 1
	octave 3
	F# 10
	octave 4
	D_ 1
	rest 1
	D_ 1
	rest 1
	D_ 1
	rest 1
	octave 3
	D_ 10
	octave 4
	A_ 8
	C# 1
	D_ 1
	E_ 1
	F# 1
	G_ 1
	A_ 1
	B_ 1
	C# 1
	D_ 1
	C# 1
	D_ 2
	octave 3
	A_ 1
	G_ 1
	A_ 2
	F# 2
	octave 2
	A_ 2
	octave 3
	D_ 4
	octave 2
	callchannel Music_MobileAdapter_Ch1_loop_sub_1
	callchannel Music_MobileAdapter_Ch1_loop_sub_1
	loopchannel 0, Music_MobileAdapter_Ch1_loop
Music_MobileAdapter_Ch1_loop_sub_0:
	F# 10
	octave 4
	G_ 1
	rest 1
	G_ 1
	rest 1
	G_ 2
	octave 3
	G_ 8
	B_ 1
	octave 4
	D_ 1
	E_ 1
	D_ 1
	C# 1
	E_ 1
	D_ 1
	C# 1
	octave 3
	B_ 1
	A_ 1
	E_ 1
	F# 1
	G_ 1
	F# 1
	E_ 1
	A_ 1
	B_ 1
	octave 4
	C# 1
	D_ 1
	C# 1
	endchannel
Music_MobileAdapter_Ch1_loop_sub_1:
	A_ 1
	rest 1
	octave 3
	D_ 2
	octave 2
	A_ 1
	octave 3
	D_ 3
	octave 2
	A# 1
	rest 1
	octave 3
	D_ 2
	octave 2
	A# 1
	octave 3
	D_ 3
	octave 2
	B_ 1
	rest 1
	octave 3
	D_ 2
	octave 2
	B_ 1
	octave 3
	D_ 3
	octave 2
	A_ 2
	rest 6
	endchannel
Music_MobileAdapter_Ch1_loop_sub_2:
	F# 1
	rest 1
	F# 1
	rest 1
	F# 2
	endchannel
Music_MobileAdapter_Ch2::
	vibrato 10, 2, 3
	duty 2
	notetype 12, 12, 1
	octave 3
	G_ 1
	B_ 1
	octave 4
	D_ 1
	C# 1
	D_ 2
	octave 3
	B_ 1
	A# 1
	B_ 2
	octave 4
	C# 2
	octave 3
	B_ 2
	A_ 2
	D_ 1
	F# 1
Music_MobileAdapter_Ch2_loop:
	octave 3
	A_ 1
	callchannel Music_MobileAdapter_Ch2_loop_sub_1
	A_ 4
	G_ 4
	A_ 4
	E_ 4
	F# 12
	rest 2
	D_ 1
	F# 1
	A_ 1
	callchannel Music_MobileAdapter_Ch2_loop_sub_1
	octave 5
	C# 4
	octave 4
	A_ 4
	octave 5
	F# 4
	E_ 4
	D_ 12
	rest 2
	C# 1
	D_ 1
	E_ 1
	rest 1
	E_ 1
	rest 1
	E_ 1
	rest 1
	G_ 4
	F# 2
	E_ 2
	D_ 2
	C# 9
	E_ 3
	C# 2
	D_ 1
	callchannel Music_MobileAdapter_Ch2_loop_sub_2
	C# 4
	D_ 2
	E_ 2
	F# 2
	E_ 9
	A_ 3
	E_ 2
	F# 1
	G_ 1
	A_ 1
	rest 1
	A_ 1
	rest 1
	A_ 1
	rest 1
	G_ 4
	F# 2
	E_ 2
	D_ 1
	callchannel Music_MobileAdapter_Ch2_loop_sub_2
	G_ 4
	F# 2
	D_ 2
	octave 4
	A# 1
	B_ 1
	octave 5
	C# 12
	E_ 4
	D_ 16
	duty 1
	callchannel Music_MobileAdapter_Ch2_loop_sub_0
	octave 4
	E_ 1
	A_ 1
	octave 5
	C# 1
	E_ 1
	callchannel Music_MobileAdapter_Ch2_loop_sub_0
	rest 2
	duty 2
	D_ 1
	F# 1
	loopchannel 0, Music_MobileAdapter_Ch2_loop
Music_MobileAdapter_Ch2_loop_sub_0:
	F# 1
	D_ 1
	octave 4
	A_ 1
	F# 1
	octave 5
	F# 1
	D_ 1
	octave 4
	A_ 1
	F# 1
	octave 5
	F# 1
	D_ 1
	octave 4
	A# 1
	F# 1
	octave 5
	F# 1
	D_ 1
	octave 4
	A# 1
	F# 1
	octave 5
	G_ 1
	D_ 1
	octave 4
	B_ 1
	G_ 1
	octave 5
	G_ 1
	D_ 1
	octave 4
	B_ 1
	G_ 1
	octave 5
	C# 4
	endchannel
Music_MobileAdapter_Ch2_loop_sub_1:
	rest 1
	A_ 1
	rest 1
	A_ 2
	octave 5
	D_ 4
	C# 2
	octave 4
	B_ 2
	G_ 1
	A_ 1
	B_ 1
	rest 1
	B_ 1
	rest 1
	B_ 2
	octave 5
	E_ 4
	D_ 2
	C# 2
	octave 4
	B_ 2
	endchannel
Music_MobileAdapter_Ch2_loop_sub_2:
	C# 1
	octave 4
	B_ 1
	rest 1
	B_ 1
	rest 1
	B_ 1
	rest 1
	octave 5
	endchannel
Music_MobileAdapter_Ch3::
	notetype 12, 0, 1
	rest 2
	vibrato 11, 2, 3
	notetype 12, 2, 1
	octave 3
	G_ 1
	rest 1
	B_ 1
	rest 1
	G_ 1
	rest 1
	B_ 1
	G_ 1
	A_ 1
	rest 1
	E_ 1
	rest 1
	A_ 4
Music_MobileAdapter_Ch3_loop:
	octave 3
	callchannel Music_MobileAdapter_Ch3_loop_sub_0
	D_ 1
	rest 1
	octave 2
	A_ 1
	rest 1
	B_ 1
	rest 1
	octave 3
	C# 1
	rest 1
	callchannel Music_MobileAdapter_Ch3_loop_sub_0
	D_ 2
	octave 2
	A_ 2
	octave 3
	D_ 4
	callchannel Music_MobileAdapter_Ch3_loop_sub_1
	callchannel Music_MobileAdapter_Ch3_loop_sub_1
	octave 2
	callchannel Music_MobileAdapter_Ch3_loop_sub_3
	callchannel Music_MobileAdapter_Ch3_loop_sub_4
	D_ 1
	rest 1
	octave 2
	G_ 1
	rest 1
	octave 3
	D_ 1
	rest 1
	octave 2
	G_ 1
	rest 1
	B_ 1
	rest 1
	callchannel Music_MobileAdapter_Ch3_loop_sub_3
	octave 3
	D_ 1
	rest 1
	A_ 1
	rest 1
	D_ 1
	rest 1
	A_ 1
	rest 1
	C# 1
	rest 1
	A_ 1
	rest 1
	C# 1
	rest 1
	A_ 1
	rest 1
	octave 2
	callchannel Music_MobileAdapter_Ch3_loop_sub_4
	G_ 1
	rest 1
	octave 2
	A# 1
	rest 1
	octave 3
	G_ 1
	rest 1
	octave 2
	A# 1
	rest 1
	octave 3
	G_ 1
	rest 1
	callchannel Music_MobileAdapter_Ch3_loop_sub_1
	callchannel Music_MobileAdapter_Ch3_loop_sub_1
	D_ 1
	rest 1
	A_ 1
	rest 1
	D_ 1
	rest 1
	A_ 1
	rest 1
	F# 2
	octave 2
	A_ 2
	octave 3
	D_ 4
	octave 2
	callchannel Music_MobileAdapter_Ch3_loop_sub_2
	callchannel Music_MobileAdapter_Ch3_loop_sub_2
	loopchannel 0, Music_MobileAdapter_Ch3_loop
Music_MobileAdapter_Ch3_loop_sub_0:
	D_ 1
	rest 1
	A_ 1
	rest 1
	D_ 1
	rest 1
	A_ 1
	rest 1
	D_ 1
	rest 1
	A_ 1
	rest 1
	D_ 1
	rest 1
	A_ 1
	rest 1
	octave 2
	G_ 1
	rest 1
	octave 3
	D_ 1
	rest 1
	octave 2
	G_ 1
	rest 1
	octave 3
	D_ 1
	rest 1
	octave 2
	G_ 1
	rest 1
	octave 3
	D_ 1
	rest 1
	octave 2
	G_ 1
	rest 1
	octave 3
	D_ 1
	rest 1
	octave 2
	A_ 1
	rest 1
	octave 3
	E_ 1
	rest 1
	octave 2
	A_ 1
	rest 1
	octave 3
	E_ 1
	rest 1
	octave 2
	A_ 1
	rest 1
	octave 3
	E_ 1
	rest 1
	octave 2
	A_ 1
	rest 1
	octave 3
	E_ 1
	rest 1
	D_ 1
	rest 1
	A_ 1
	rest 1
	D_ 1
	rest 1
	A_ 1
	rest 1
	endchannel
Music_MobileAdapter_Ch3_loop_sub_1:
	octave 2
	A_ 1
	rest 1
	octave 3
	E_ 1
	rest 1
	octave 2
	A_ 1
	rest 1
	octave 3
	E_ 1
	rest 1
	endchannel
Music_MobileAdapter_Ch3_loop_sub_2:
	A_ 1
	rest 1
	octave 3
	D_ 2
	octave 2
	A_ 1
	octave 3
	D_ 3
	octave 2
	A# 1
	rest 1
	octave 3
	D_ 2
	octave 2
	A# 1
	octave 3
	D_ 3
	octave 2
	B_ 1
	rest 1
	octave 3
	D_ 2
	octave 2
	B_ 1
	octave 3
	D_ 3
	octave 2
	A_ 2
	rest 6
	endchannel
Music_MobileAdapter_Ch3_loop_sub_3:
	A_ 1
	rest 1
	octave 3
	C# 1
	rest 1
	E_ 1
	rest 1
	C# 1
	rest 1
	octave 2
	A_ 1
	octave 3
	E_ 2
	rest 1
	octave 2
	A_ 4
	endchannel
Music_MobileAdapter_Ch3_loop_sub_4:
	B_ 1
	rest 1
	octave 3
	G_ 1
	rest 1
	octave 2
	B_ 1
	rest 1
	octave 3
	endchannel
Music_MobileAdapter_Ch4::
	toggleperfectpitch
	dspeed 12
	rest 12
	cymbal1 2
	cymbal1 2
	cymbal1 1
	cymbal1 1
Music_MobileAdapter_Ch4_loop:
	rest 4
	callchannel Music_MobileAdapter_Ch4_loop_sub_0
	callchannel Music_MobileAdapter_Ch4_loop_sub_0
	cymbal1 8
	callchannel Music_MobileAdapter_Ch4_loop_sub_1
	cymbal1 8
	callchannel Music_MobileAdapter_Ch4_loop_sub_1
	cymbal1 4
	rest 4
	cymbal1 4
	rest 4
	cymbal1 4
	rest 4
	cymbal1 4
	rest 4
	callchannel Music_MobileAdapter_Ch4_loop_sub_0
	cymbal1 8
	cymbal1 8
	cymbal1 6
	cymbal1 2
	cymbal1 2
	cymbal1 1
	cymbal1 1
	loopchannel 0, Music_MobileAdapter_Ch4_loop
Music_MobileAdapter_Ch4_loop_sub_0:
	cymbal1 4
	rest 4
	cymbal1 4
	rest 4
	cymbal1 4
	rest 4
	cymbal1 4
	rest 4
	cymbal1 4
	rest 4
	cymbal1 4
	rest 4
	cymbal1 4
	rest 2
	cymbal1 2
	cymbal1 2
	cymbal1 1
	cymbal1 1
	rest 4
	endchannel
Music_MobileAdapter_Ch4_loop_sub_1:
	cymbal1 8
	cymbal1 4
	cymbal1 1
	cymbal1 3
	cymbal1 4
	rest 4
	endchannel
