Music_MobileCenter_Ch1::
	tempo 160
	volume 7, 7
	duty 3
	vibrato 8, 2, 2
	notetype 12, 12, 0
	octave 3
	E_ 2
	F_ 2
	G_ 4
	G_ 2
	A_ 2
	B_ 4
Music_MobileCenter_branch_179642::
	octave 3
	E_ 2
	C_ 2
	E_ 2
	octave 4
	C_ 2
	octave 3
	G_ 2
	B_ 2
	A_ 2
	G_ 2
	A_ 2
	G_ 2
	F_ 2
	E_ 2
	D_ 2
	E_ 2
	F_ 2
	G_ 2
	G_ 2
	D_ 2
	G_ 2
	B_ 2
	G_ 2
	A_ 2
	G_ 2
	F_ 2
	E_ 2
	G_ 2
	A_ 2
	B_ 2
	octave 4
	C_ 2
	octave 3
	B_ 2
	A_ 2
	G_ 2
	E_ 2
	C_ 2
	E_ 2
	octave 4
	C_ 2
	octave 3
	G_ 2
	B_ 2
	A_ 2
	G_ 2
	A_ 2
	G_ 2
	F_ 2
	E_ 2
	D_ 2
	E_ 2
	F_ 2
	G_ 2
	G_ 2
	D_ 2
	G_ 2
	B_ 4
	A_ 2
	G_ 2
	F_ 2
	E_ 2
	D_ 2
	C_ 2
	D_ 2
	E_ 2
	F_ 2
	G_ 2
	A_ 2
	E_ 2
	D_ 2
	C_ 4
	D_ 2
	E_ 2
	F_ 2
	G_ 2
	A_ 2
	G_ 2
	F_ 2
	E_ 2
	D_ 2
	E_ 2
	F_ 2
	G_ 2
	F_ 2
	E_ 2
	D_ 4
	octave 2
	B_ 2
	octave 3
	C_ 2
	D_ 2
	F_ 2
	E_ 2
	F_ 2
	G_ 2
	A_ 2
	G_ 8
	octave 4
	C_ 2
	octave 3
	B_ 2
	A_ 4
	G_ 2
	A_ 2
	B_ 2
	octave 4
	C_ 2
	D_ 2
	C_ 2
	octave 3
	B_ 4
	A_ 2
	B_ 2
	octave 4
	C_ 2
	D_ 2
	octave 3
	B_ 2
	A_ 2
	G_ 4
	F_ 2
	G_ 2
	A_ 2
	F_ 2
	G_ 2
	F_ 2
	E_ 2
	D_ 2
	C_ 2
	D_ 2
	E_ 2
	F_ 2
	loopchannel 0, Music_MobileCenter_branch_179642


Music_MobileCenter_Ch2::
	notetype 12, 15, 0
	duty 3
	rest 10
	octave 1
	G_ 2
	A_ 2
	B_ 2
Music_MobileCenter_branch_1796d6::
	octave 2
	C_ 2
	E_ 2
	octave 1
	G_ 2
	octave 2
	E_ 2
	C_ 2
	E_ 2
	F_ 2
	E_ 2
	D_ 2
	G_ 2
	octave 1
	G_ 2
	octave 2
	G_ 2
	D_ 2
	G_ 2
	octave 1
	G_ 2
	octave 2
	G_ 2
	D_ 2
	G_ 2
	octave 1
	G_ 2
	octave 2
	G_ 2
	D_ 2
	G_ 2
	F_ 2
	G_ 2
	E_ 2
	G_ 2
	E_ 2
	G_ 2
	E_ 2
	G_ 2
	octave 1
	G_ 2
	octave 2
	G_ 2
	C_ 2
	E_ 2
	octave 1
	G_ 2
	octave 2
	E_ 2
	C_ 2
	E_ 2
	F_ 2
	E_ 2
	D_ 2
	G_ 2
	octave 1
	G_ 2
	octave 2
	G_ 2
	D_ 2
	G_ 2
	octave 1
	G_ 2
	octave 2
	G_ 2
	D_ 2
	G_ 2
	octave 1
	G_ 2
	octave 2
	G_ 2
	D_ 2
	G_ 2
	F_ 2
	G_ 2
	C_ 2
	E_ 2
	octave 1
	G_ 2
	octave 2
	E_ 2
	C_ 2
	A_ 2
	G_ 2
	F_ 2
	E_ 2
	G_ 2
	C_ 2
	G_ 2
	E_ 2
	G_ 2
	C_ 2
	G_ 2
	F_ 2
	A_ 2
	C_ 2
	A_ 2
	F_ 2
	A_ 2
	C_ 2
	A_ 2
	D_ 2
	F_ 2
	octave 1
	B_ 2
	octave 2
	F_ 2
	D_ 2
	F_ 2
	octave 1
	B_ 2
	octave 2
	F_ 2
	E_ 2
	G_ 2
	C_ 2
	G_ 2
	E_ 2
	G_ 2
	C_ 2
	G_ 2
	E_ 2
	G_ 2
	C_ 2
	G_ 2
	E_ 2
	G_ 2
	C_ 2
	G_ 2
	F_ 2
	A_ 2
	C_ 2
	A_ 2
	F_ 2
	A_ 2
	C_ 2
	A_ 2
	D_ 2
	F_ 2
	octave 1
	B_ 2
	octave 2
	F_ 2
	D_ 2
	F_ 2
	octave 1
	B_ 2
	octave 2
	F_ 2
	E_ 2
	G_ 2
	C_ 2
	G_ 2
	E_ 2
	F_ 2
	E_ 2
	D_ 2
	loopchannel 0, Music_MobileCenter_branch_1796d6


Music_MobileCenter_Ch3::
	notetype 12, 6, 1
	vibrato 16, 3, 4
	octave 4
	G_ 2
	A_ 2
	B_ 4
	B_ 2
	octave 5
	C_ 2
	D_ 4
	notetype 12, 2, 5
Music_MobileCenter_branch_179788::
	C_ 2
	octave 4
	G_ 2
	octave 5
	C_ 2
	G_ 4
	F_ 4
	E_ 2
	D_ 2
	octave 4
	B_ 6
	notetype 12, 1, 0
	octave 6
	G_ 1
	rest 1
	D_ 1
	rest 1
	octave 7
	D_ 1
	rest 3
	notetype 12, 2, 5
	octave 4
	B_ 2
	G_ 2
	B_ 2
	octave 5
	E_ 4
	D_ 4
	octave 4
	B_ 2
	octave 5
	C_ 2
	E_ 6
	octave 4
	E_ 2
	F_ 2
	D_ 2
	E_ 2
	octave 5
	C_ 2
	octave 4
	G_ 2
	octave 5
	C_ 2
	G_ 4
	F_ 4
	E_ 2
	D_ 2
	octave 4
	B_ 6
	notetype 12, 1, 0
	octave 6
	G_ 1
	rest 1
	D_ 1
	rest 1
	octave 7
	D_ 1
	rest 3
	notetype 12, 2, 5
	octave 4
	B_ 2
	G_ 2
	B_ 2
	octave 5
	E_ 4
	D_ 4
	octave 4
	B_ 2
	octave 5
	C_ 8
	octave 4
	G_ 2
	A_ 2
	B_ 2
	octave 5
	D_ 2
	vibrato 24, 4, 4
	E_ 8
	G_ 8
	F_ 2
	G_ 2
	F_ 2
	E_ 2
	D_ 8
	octave 4
	B_ 8
	octave 5
	D_ 8
	E_ 2
	F_ 2
	E_ 2
	D_ 2
	C_ 8
	E_ 8
	G_ 8
	F_ 2
	E_ 2
	F_ 2
	G_ 2
	A_ 8
	G_ 4
	F_ 2
	E_ 2
	F_ 8
	E_ 2
	F_ 2
	E_ 2
	D_ 2
	C_ 8
	vibrato 16, 3, 4
	loopchannel 0, Music_MobileCenter_branch_179788


Music_MobileCenter_Ch4:
	toggleperfectpitch
	notetype 12, 0, 0
    triangle1 8
	triangle1 4
	mutedsnare1 1
	mutedsnare1 1
	mutedsnare1 1
	mutedsnare1 1
Music_MobileCenter_branch_179813:
	triangle1 2
	mutedsnare1 2
	mutedsnare1 2
	mutedsnare1 2
	triangle1 2
	mutedsnare1 2
	cymbal1 2
	mutedsnare1 2
	loopchannel 3, Music_MobileCenter_branch_179813
	triangle1 2
	mutedsnare1 2
	mutedsnare1 2
	mutedsnare1 2
	triangle1 2
	cymbal1 2
	mutedsnare1 1
	mutedsnare1 1
	mutedsnare1 1
	mutedsnare1 1
	loopchannel 0, Music_MobileCenter_branch_179813