Music_MobileAdapterMenu_Ch1::
	tempo 168
	volume 7, 7
	duty 2
	notetype 12, 10, 2
	rest 2
Music_MobileAdapterMenu_branch_178038::
	callchannel Music_MobileAdapterMenu_branch_178057
	callchannel Music_MobileAdapterMenu_branch_178076
	octave 3
	F# 4
	B_ 4
	F# 2
	B_ 1
	rest 1
	D# 4
	callchannel Music_MobileAdapterMenu_branch_178076
	octave 3
	F# 2
	octave 2
	B_ 2
	octave 3
	D# 3
	E_ 1
	D# 8
	callchannel Music_MobileAdapterMenu_branch_178057
	loopchannel 0, Music_MobileAdapterMenu_branch_178038


Music_MobileAdapterMenu_branch_178057::
	octave 3
	G# 7
	octave 4
	E_ 1
	D# 1
	rest 1
	octave 3
	B_ 1
	rest 1
	F# 4
	E_ 8
	D# 1
	rest 1
	C# 1
	rest 1
	D# 4
	G# 7
	octave 4
	E_ 1
	D# 1
	rest 1
	octave 3
	B_ 1
	rest 1
	F# 4
	A_ 2
	E_ 2
	A_ 3
	A_ 1
	G# 8
	endchannel


Music_MobileAdapterMenu_branch_178076::
	E_ 1
	rest 1
	A_ 1
	rest 1
	octave 4
	C# 3
	octave 3
	B_ 1
	A_ 2
	octave 4
	E_ 1
	rest 1
	C# 4
	endchannel


Music_MobileAdapterMenu_Ch2::
	notetype 12, 13, 2
	duty 2
	octave 4
	E_ 1
	G# 1
Music_MobileAdapterMenu_branch_17808e::
	callchannel Music_MobileAdapterMenu_branch_1780ae
	E_ 8
	callchannel Music_MobileAdapterMenu_branch_1780d7
	D# 2
	C# 2
	D# 3
	E_ 1
	F# 8
	callchannel Music_MobileAdapterMenu_branch_1780d7
	D# 2
	E_ 2
	F# 3
	G# 1
	F# 6
	E_ 1
	G# 1
	callchannel Music_MobileAdapterMenu_branch_1780ae
	E_ 6
	E_ 1
	G# 1
	loopchannel 0, Music_MobileAdapterMenu_branch_17808e


Music_MobileAdapterMenu_branch_1780ae::
	octave 4
	B_ 1
	rest 1
	B_ 1
	rest 1
	A_ 3
	G# 1
	F# 1
	rest 1
	D# 1
	rest 1
	octave 3
	B_ 4
	octave 4
	C# 2
	D# 2
	E_ 3
	G# 1
	F# 6
	E_ 1
	G# 1
	B_ 1
	rest 1
	B_ 1
	rest 1
	A_ 3
	G# 1
	F# 1
	rest 1
	D# 1
	rest 1
	octave 3
	B_ 4
	octave 4
	C# 2
	octave 3
	B_ 2
	octave 4
	C# 3
	D# 1
	endchannel


Music_MobileAdapterMenu_branch_1780d7::
	A_ 1
	rest 1
	A_ 1
	rest 1
	G# 3
	F# 1
	E_ 2
	A_ 1
	rest 1
	E_ 4
	endchannel


Music_MobileAdapterMenu_Ch3::
	vibrato 8, 5, 2
	notetype 12, 3, 7
	rest 2
Music_MobileAdapterMenu_branch_1780e9::
	callchannel Music_MobileAdapterMenu_branch_178119
	octave 2
	B_ 1
	G# 1
	callchannel Music_MobileAdapterMenu_branch_178146
	octave 2
	B_ 2
	rest 2
	octave 3
	F# 2
	rest 1
	D# 1
	F# 2
	D# 1
	rest 1
	octave 2
	B_ 2
	F# 1
	G# 1
	callchannel Music_MobileAdapterMenu_branch_178146
	octave 2
	B_ 2
	rest 2
	octave 3
	F# 2
	rest 1
	D# 1
	octave 2
	B_ 1
	rest 1
	octave 3
	D# 1
	rest 1
	F# 4
	callchannel Music_MobileAdapterMenu_branch_178119
	rest 2
	loopchannel 0, Music_MobileAdapterMenu_branch_1780e9


Music_MobileAdapterMenu_branch_178119::
	octave 3
	E_ 2
	rest 2
	B_ 2
	rest 1
	G# 1
	D# 1
	rest 1
	B_ 1
	rest 1
	D# 4
	C# 2
	rest 2
	A_ 2
	rest 1
	F# 1
	octave 2
	B_ 1
	rest 1
	octave 3
	D# 1
	rest 1
	F# 4
	E_ 2
	rest 2
	B_ 2
	rest 1
	G# 1
	D# 1
	rest 1
	B_ 1
	rest 1
	D# 4
	C# 2
	rest 2
	A_ 2
	rest 1
	C# 1
	E_ 3
	pitchbend 0, 35
	E_ 3
	endchannel


Music_MobileAdapterMenu_branch_178146::
	A_ 2
	rest 2
	octave 3
	A_ 2
	rest 1
	C# 1
	A_ 2
	octave 4
	C# 1
	rest 1
	octave 3
	A_ 4
	endchannel