Music_KalosPowerPlant_Ch1::
Music_KalosPowerPlant_Ch1_loop::
	tempo 175
	notetype 12, 0, 0
	rest 3
	vibrato 12, 3, 5
	duty 2
	volume 7, 7
	notetype 12, 5, 7
	octave 4
	E_ 2
	E_ 2
	rest 1
	E_ 2
	rest 1
	E_ 2
	F# 2
	D# 2
	rest 2
	E_ 2
	E_ 2
	rest 1
	E_ 2
	rest 1
	E_ 2
	D# 2
	rest 1
	vibrato 12, 2, 3
	notetype 12, 12, 3
	octave 2
	G# 3
	callchannel Music_KalosPowerPlant_Ch1_loop_sub_0
	notetype 12, 12, 3
	G# 3
	callchannel Music_KalosPowerPlant_Ch1_loop_sub_0
	octave 3
	C# 1
	rest 2
	D_ 1
	rest 2
	notetype 12, 11, 9
	C# 6
	rest 4
	octave 2
	A# 1
	rest 2
	D# 1
	rest 2
	D_ 10
	notetype 12, 10, 10
	F# 2
	F# 2
	F# 2
	octave 3
	C_ 2
	C# 2
	C_ 2
	C# 2
	D# 2
	notetype 12, 6, 14
	C_ 8
	rest 2
	notetype 12, 13, 2
	octave 2
	G# 1
	rest 2
	notetype 12, 12, 8
	F# 3
	notetype 12, 12, 3
	G# 3
	callchannel Music_KalosPowerPlant_Ch1_loop_sub_0
	notetype 12, 12, 3
	G# 3
	callchannel Music_KalosPowerPlant_Ch1_loop_sub_0
	notetype 12, 6, 10
	octave 4
	E_ 16
	C_ 8
	E_ 8
	octave 3
	B_ 16
	G# 6
	G# 6
	G# 4
	B_ 16
	B_ 8
	octave 4
	D# 8
	octave 3
	B_ 16
	B_ 8
	octave 4
	D# 8
	loopchannel 0, Music_KalosPowerPlant_Ch1_loop
Music_KalosPowerPlant_Ch1_loop_sub_0::
	notetype 12, 12, 2
	G# 1
	rest 6
	G# 2
	rest 1
	G# 2
	rest 1
	notetype 12, 12, 3
	G# 3
	notetype 12, 12, 2
	G# 1
	rest 6
	G# 2
	rest 1
	G# 2
	rest 1
	notetype 12, 12, 3
	G_ 3
	notetype 12, 12, 2
	G_ 1
	rest 6
	G_ 2
	rest 1
	G_ 2
	rest 1
	notetype 12, 12, 3
	G_ 3
	notetype 12, 12, 2
	G_ 1
	rest 6
	G_ 2
	rest 1
	G_ 2
	rest 1
	endchannel
Music_KalosPowerPlant_Ch2::
Music_KalosPowerPlant_Ch2_loop::
	vibrato 12, 3, 5
	duty 2
	notetype 12, 12, 4
	callchannel Music_KalosPowerPlant_Ch2_loop_sub_1
	F# 2
	D# 2
	callchannel Music_KalosPowerPlant_Ch2_loop_sub_1
	D# 2
	rest 2
	duty 1
	notetype 12, 12, 2
	callchannel Music_KalosPowerPlant_Ch2_loop_sub_0
	callchannel Music_KalosPowerPlant_Ch2_loop_sub_0
	vibrato 12, 2, 3
	C# 1
	rest 2
	octave 3
	G# 1
	rest 2
	notetype 12, 11, 9
	A_ 6
	octave 4
	C# 1
	D# 1
	E_ 1
	F_ 1
	notetype 12, 13, 2
	F# 1
	rest 2
	octave 3
	F# 1
	rest 2
	notetype 12, 11, 9
	B_ 10
	notetype 12, 10, 10
	A_ 2
	B_ 2
	A_ 2
	octave 4
	D# 2
	E_ 2
	D# 2
	E_ 2
	F# 2
	notetype 12, 4, 15
	D# 8
	rest 2
	notetype 12, 13, 3
	E_ 1
	rest 2
	notetype 12, 12, 8
	D# 3
	notetype 12, 12, 2
	callchannel Music_KalosPowerPlant_Ch2_loop_sub_0
	callchannel Music_KalosPowerPlant_Ch2_loop_sub_0
	notetype 12, 6, 10
	G# 16
	F# 8
	B_ 8
	E_ 16
	D_ 6
	E_ 6
	F# 4
	G# 16
	F# 8
	B_ 8
	G# 16
	F# 8
	B_ 8
	loopchannel 0, Music_KalosPowerPlant_Ch2_loop
Music_KalosPowerPlant_Ch2_loop_sub_0::
	octave 3
	G# 2
	octave 4
	E_ 2
	D# 2
	octave 3
	B_ 2
	octave 4
	C# 2
	rest 2
	octave 3
	G# 2
	B_ 2
	rest 2
	A_ 2
	rest 2
	G# 2
	rest 2
	F# 2
	G# 2
	rest 3
	octave 4
	E_ 1
	duty 2
	octave 5
	E_ 1
	duty 1
	octave 4
	E_ 1
	duty 2
	octave 5
	E_ 2
	duty 1
	octave 4
	E_ 1
	duty 2
	octave 5
	E_ 2
	duty 1
	octave 4
	E_ 1
	octave 5
	D_ 2
	octave 4
	B_ 2
	A_ 2
	B_ 2
	A_ 1
	E_ 2
	E_ 1
	A_ 1
	B_ 3
	A_ 2
	E_ 2
	A_ 2
	endchannel
Music_KalosPowerPlant_Ch2_loop_sub_1::
	octave 3
	C# 1
	G# 1
	octave 4
	E_ 2
	E_ 2
	rest 1
	E_ 2
	rest 1
	E_ 2
	endchannel
Music_KalosPowerPlant_Ch3::
Music_KalosPowerPlant_Ch3_loop::
	vibrato 0, 0, 0
	notetype 12, 1, 1
	octave 3
	C# 16
	C# 13
	rest 3
	vibrato 0, 6, 6
	notetype 12, 1, 4
	C# 3
	callchannel Music_KalosPowerPlant_Ch3_loop_sub_0
	C# 3
	callchannel Music_KalosPowerPlant_Ch3_loop_sub_0
	octave 2
	A_ 1
	rest 2
	G# 1
	rest 2
	A_ 7
	G# 1
	A_ 1
	G# 1
	F# 1
	rest 2
	D# 1
	rest 2
	G_ 8
	A_ 1
	G_ 1
	F# 8
	D# 8
	G# 8
	rest 2
	G# 1
	rest 2
	G# 3
	octave 3
	C# 3
	callchannel Music_KalosPowerPlant_Ch3_loop_sub_0
	C# 3
	callchannel Music_KalosPowerPlant_Ch3_loop_sub_0
	octave 2
	B_ 2
	rest 1
	B_ 1
	rest 6
	octave 3
	E_ 3
	octave 2
	A_ 3
	G# 2
	rest 1
	G# 1
	rest 1
	G# 1
	rest 4
	G# 2
	rest 1
	G# 3
	octave 3
	C# 2
	rest 1
	C# 1
	rest 2
	C# 1
	rest 3
	C# 1
	rest 2
	C# 3
	octave 2
	E_ 2
	rest 1
	E_ 1
	rest 2
	E_ 1
	rest 3
	E_ 1
	rest 2
	E_ 3
	F# 4
	B_ 1
	octave 3
	C_ 1
	C# 6
	octave 2
	F# 4
	G# 4
	octave 3
	C# 1
	D_ 1
	D# 6
	octave 2
	B_ 4
	G# 4
	octave 3
	C# 1
	D# 1
	E_ 6
	octave 2
	B_ 2
	octave 3
	C# 2
	octave 2
	B_ 4
	octave 3
	D# 1
	F_ 1
	F# 4
	D# 2
	octave 2
	B_ 2
	octave 3
	D# 2
	loopchannel 0, Music_KalosPowerPlant_Ch3_loop
Music_KalosPowerPlant_Ch3_loop_sub_0::
	C# 1
	rest 2
	notetype 12, 1, 2
	octave 2
	C# 4
	notetype 12, 1, 4
	octave 3
	C# 2
	rest 1
	C# 2
	rest 1
	C# 3
	C# 1
	rest 2
	notetype 12, 1, 2
	octave 2
	C# 4
	notetype 12, 1, 4
	octave 3
	C# 2
	rest 1
	C# 2
	rest 1
	E_ 3
	E_ 1
	rest 2
	notetype 12, 1, 2
	octave 2
	E_ 4
	notetype 12, 1, 4
	octave 3
	E_ 2
	rest 1
	E_ 2
	rest 1
	E_ 3
	E_ 1
	rest 2
	notetype 12, 1, 2
	octave 2
	E_ 4
	notetype 12, 1, 4
	octave 3
	E_ 2
	rest 1
	E_ 2
	rest 1
	endchannel
Music_KalosPowerPlant_Ch4::
Music_KalosPowerPlant_Ch4_loop::
	toggleperfectpitch
	dspeed 12
	callchannel Music_KalosPowerPlant_Ch4_loop_sub_1
	callchannel Music_KalosPowerPlant_Ch4_loop_sub_1
	callchannel Music_KalosPowerPlant_Ch4_loop_sub_0
	callchannel Music_KalosPowerPlant_Ch4_loop_sub_0
	callchannel Music_KalosPowerPlant_Ch4_loop_sub_0
	callchannel Music_KalosPowerPlant_Ch4_loop_sub_0
	callchannel Music_KalosPowerPlant_Ch4_loop_sub_0
	snare5 4
	snare3 2
	snare3 2
	snare3 2
	callchannel Music_KalosPowerPlant_Ch4_loop_sub_2
	callchannel Music_KalosPowerPlant_Ch4_loop_sub_2
	snare3 2
	snare3 2
	snare3 2
	rest 1
	snare3 2
	rest 1
	callchannel Music_KalosPowerPlant_Ch4_loop_sub_0
	callchannel Music_KalosPowerPlant_Ch4_loop_sub_0
	callchannel Music_KalosPowerPlant_Ch4_loop_sub_0
	callchannel Music_KalosPowerPlant_Ch4_loop_sub_0
	callchannel Music_KalosPowerPlant_Ch4_loop_sub_0
	callchannel Music_KalosPowerPlant_Ch4_loop_sub_0
	callchannel Music_KalosPowerPlant_Ch4_loop_sub_0
	callchannel Music_KalosPowerPlant_Ch4_loop_sub_0
	loopchannel 0, Music_KalosPowerPlant_Ch4_loop
Music_KalosPowerPlant_Ch4_loop_sub_0::
	snare5 4
	snare3 2
	snare3 2
	snare3 2
	snare3 2
	snare2 1
	snare2 1
	snare3 2
	snare3 2
	snare2 1
	snare2 1
	snare3 2
	snare3 2
	snare3 2
	snare3 2
	snare2 1
	snare2 1
	snare3 2
	endchannel
Music_KalosPowerPlant_Ch4_loop_sub_1::
	snare4 3
	snare2 1
	snare3 2
	snare5 4
	snare3 2
	snare5 4
	endchannel
Music_KalosPowerPlant_Ch4_loop_sub_2::
	snare3 2
	snare2 1
	snare2 1
	snare3 2
	endchannel
