Music_RockTunnel_Ch1::
	tempo 280
	notetype 12, 0, 0
	rest 16
Music_RockTunnel_Ch1_loop:
	notetype 12, 0, 0
	rest 16
	rest 12
	vibrato 0, 0, 0
	duty 2
	volume 7, 7
	notetype 6, 7, 3
	octave 4
	F_ 1
	F_ 1
	F# 1
	F# 1
	rest 2
	G_ 1
	G_ 1
	notetype 12, 7, 3
	rest 16
	rest 16
	rest 16
	rest 16
	rest 16
	rest 9
	notetype 6, 7, 3
	octave 5
	E_ 1
	rest 1
	C_ 1
	rest 1
	octave 4
	A# 1
	rest 1
	G_ 1
	rest 1
	E_ 1
	rest 1
	G_ 1
	rest 1
	octave 5
	C_ 1
	notetype 12, 7, 3
	rest 16
	rest 16
	rest 16
	rest 16
	rest 16
	rest 16
	rest 16
	rest 16
	rest 16
	rest 16
	rest 16
	rest 16
	notetype 6, 7, 3
	rest 1
	loopchannel 0, Music_RockTunnel_Ch1_loop
Music_RockTunnel_Ch2::
	notetype 12, 0, 0
	rest 12
	vibrato 0, 0, 0
	duty 2
	notetype 6, 8, 3
	octave 3
	D# 1
	D# 1
	octave 4
	D# 1
	D# 1
	octave 3
	E_ 1
	E_ 1
	octave 4
	E_ 1
	E_ 1
Music_RockTunnel_Ch2_loop:
	notetype 12, 0, 0
	rest 16
	rest 8
	notetype 6, 8, 3
	octave 1
	callchannel Music_RockTunnel_Ch2_loop_sub_2
	octave 5
	C# 1
	C# 1
	D_ 1
	D_ 1
	rest 2
	D# 1
	D# 1
	notetype 12, 8, 3
	rest 16
	rest 8
	notetype 6, 3, 3
	octave 2
	callchannel Music_RockTunnel_Ch2_loop_sub_4
	callchannel Music_RockTunnel_Ch2_loop_sub_0
	octave 3
	callchannel Music_RockTunnel_Ch2_loop_sub_5
	octave 3
	callchannel Music_RockTunnel_Ch2_loop_sub_5
	rest 2
	octave 6
	C_ 1
	rest 1
	octave 5
	A# 1
	rest 1
	G_ 1
	rest 1
	C_ 1
	rest 1
	octave 4
	A# 1
	rest 1
	octave 5
	C_ 1
	rest 1
	E_ 1
	rest 1
	octave 3
	callchannel Music_RockTunnel_Ch2_loop_sub_0
	octave 1
	D# 1
	D# 1
	D# 1
	D# 1
	octave 2
	D# 1
	D# 1
	octave 1
	D# 1
	D# 1
	octave 2
	C# 1
	C# 1
	D_ 1
	D_ 1
	rest 2
	D# 1
	D# 1
	callchannel Music_RockTunnel_Ch2_loop_sub_4
	octave 4
	callchannel Music_RockTunnel_Ch2_loop_sub_1
	callchannel Music_RockTunnel_Ch2_loop_sub_3
	notetype 6, 8, 3
	octave 1
	callchannel Music_RockTunnel_Ch2_loop_sub_2
	octave 1
	callchannel Music_RockTunnel_Ch2_loop_sub_2
	octave 4
	callchannel Music_RockTunnel_Ch2_loop_sub_1
	octave 4
	E_ 1
	rest 1
	G_ 1
	rest 1
	octave 3
	pitchbend 0, 15
	B_ 1
	rest 1
	octave 4
	C_ 1
	rest 1
	C# 1
	rest 1
	C_ 1
	rest 1
	callchannel Music_RockTunnel_Ch2_loop_sub_6
	callchannel Music_RockTunnel_Ch2_loop_sub_6
	E_ 1
	rest 1
	C_ 1
	rest 1
	E_ 1
	rest 1
	G_ 1
	rest 1
	callchannel Music_RockTunnel_Ch2_loop_sub_1
	callchannel Music_RockTunnel_Ch2_loop_sub_3
	octave 1
	callchannel Music_RockTunnel_Ch2_loop_sub_2
	octave 1
	callchannel Music_RockTunnel_Ch2_loop_sub_2
	octave 4
	callchannel Music_RockTunnel_Ch2_loop_sub_1
	octave 4
	E_ 1
	rest 1
	G_ 1
	rest 1
	octave 1
	pitchbend 0, 15
	C_ 1
	rest 1
	octave 6
	C_ 1
	octave 5
	callchannel Music_RockTunnel_Ch2_loop_sub_7
	octave 4
	callchannel Music_RockTunnel_Ch2_loop_sub_7
	octave 3
	G_ 1
	A# 1
	rest 1
	G_ 1
	E_ 1
	octave 1
	callchannel Music_RockTunnel_Ch2_loop_sub_2
	loopchannel 0, Music_RockTunnel_Ch2_loop
Music_RockTunnel_Ch2_loop_sub_0:
	F_ 1
	B_ 1
	F_ 1
	B_ 1
	F_ 1
	octave 4
	C_ 1
	octave 3
	F_ 1
	octave 4
	C_ 1
	octave 3
	B_ 1
	octave 4
	F_ 1
	octave 3
	B_ 1
	octave 4
	F_ 1
	octave 3
	F_ 1
	B_ 1
	F_ 1
	B_ 1
	F_ 1
	octave 4
	C_ 1
	octave 3
	F_ 1
	octave 4
	C_ 1
	octave 3
	B_ 1
	octave 4
	F_ 1
	octave 3
	B_ 1
	octave 4
	F_ 1
	octave 3
	F_ 1
	B_ 1
	F_ 1
	B_ 1
	F_ 1
	octave 4
	C_ 1
	octave 3
	F_ 1
	octave 4
	C_ 1
	octave 3
	A_ 1
	octave 4
	D# 1
	octave 3
	A_ 1
	octave 4
	D# 1
	octave 3
	G# 1
	octave 4
	D_ 1
	octave 3
	G# 1
	octave 4
	D_ 1
	octave 3
	F_ 1
	octave 4
	C# 1
	octave 3
	F_ 1
	octave 4
	C# 1
	C# 1
	G_ 1
	C# 1
	G_ 1
	octave 3
	A_ 1
	octave 4
	D# 1
	octave 3
	A_ 1
	octave 4
	D# 1
	octave 3
	A_ 1
	octave 4
	D# 1
	octave 3
	A_ 1
	octave 4
	D# 1
	octave 3
	A_ 1
	octave 4
	D# 1
	octave 3
	A_ 1
	octave 4
	D# 1
	octave 3
	A_ 1
	octave 4
	D# 1
	octave 3
	A_ 1
	octave 4
	D# 1
	octave 3
	F_ 1
	B_ 1
	F_ 1
	B_ 1
	F_ 1
	octave 4
	C_ 1
	octave 3
	F_ 1
	octave 4
	C_ 1
	octave 3
	B_ 1
	octave 4
	F_ 1
	octave 3
	B_ 1
	octave 4
	F_ 1
	octave 3
	F_ 1
	B_ 1
	F_ 1
	B_ 1
	F_ 1
	octave 4
	C_ 1
	octave 3
	F_ 1
	octave 4
	C_ 1
	octave 3
	B_ 1
	octave 4
	F_ 1
	octave 3
	B_ 1
	octave 4
	F_ 1
	octave 3
	F_ 1
	B_ 1
	F_ 1
	B_ 1
	F_ 1
	octave 4
	C_ 1
	octave 3
	F_ 1
	octave 4
	C_ 1
	endchannel
Music_RockTunnel_Ch2_loop_sub_1:
	C_ 1
	rest 1
	octave 1
	C_ 1
	rest 1
	octave 2
	C_ 1
	rest 1
	octave 4
	C_ 1
	rest 1
	octave 2
	C_ 1
	rest 1
	octave 4
	C_ 1
	rest 1
	octave 3
	B_ 1
	rest 1
	octave 4
	C_ 1
	rest 1
	E_ 1
	rest 1
	octave 1
	C_ 1
	rest 1
	octave 2
	C_ 1
	rest 1
	octave 4
	C_ 1
	rest 1
	octave 2
	C_ 1
	rest 1
	C_ 1
	rest 1
	endchannel
Music_RockTunnel_Ch2_loop_sub_2:
	B_ 1
	octave 2
	C_ 1
	octave 1
	B_ 1
	octave 2
	C_ 1
	octave 1
	B_ 1
	octave 2
	C_ 1
	octave 1
	B_ 1
	octave 2
	C_ 1
	endchannel
Music_RockTunnel_Ch2_loop_sub_3:
	octave 3
	B_ 1
	rest 1
	octave 4
	C_ 1
	rest 1
	octave 1
	G_ 1
	rest 1
	octave 2
	F_ 1
	rest 1
	octave 4
	C# 1
	rest 1
	D_ 1
	rest 1
	octave 1
	G_ 1
	rest 1
	octave 2
	F_ 1
	rest 1
	octave 4
	C# 1
	rest 1
	D_ 1
	rest 1
	endchannel
Music_RockTunnel_Ch2_loop_sub_4:
	G_ 1
	G# 1
	A_ 1
	A# 1
	B_ 1
	octave 3
	C_ 1
	C# 1
	D_ 1
	D# 1
	E_ 1
	F_ 1
	F# 1
	G_ 1
	G# 1
	A_ 1
	A# 1
	endchannel
Music_RockTunnel_Ch2_loop_sub_5:
	A_ 1
	octave 4
	D# 1
	octave 3
	A_ 1
	octave 4
	D# 1
	octave 3
	A_ 1
	octave 4
	D# 1
	octave 3
	A_ 1
	octave 4
	D# 1
	endchannel
Music_RockTunnel_Ch2_loop_sub_6:
	E_ 1
	rest 1
	C_ 1
	rest 1
	octave 3
	B_ 1
	rest 1
	octave 4
	C_ 1
	rest 1
	endchannel
Music_RockTunnel_Ch2_loop_sub_7:
	G_ 1
	A# 1
	rest 1
	G_ 1
	C_ 1
	E_ 1
	rest 1
	C_ 1
	endchannel
Music_RockTunnel_Ch3::
	vibrato 0, 0, 0
	notetype 6, 1, 2
	octave 1
	A_ 1
	rest 1
	octave 2
	A_ 1
	rest 1
	octave 1
	A# 1
	rest 1
	octave 2
	A# 1
	rest 1
	octave 1
	B_ 1
	rest 1
	octave 2
	B_ 1
	rest 1
	C_ 1
	rest 1
	octave 3
	C_ 1
	rest 1
	octave 2
	C# 1
	C# 1
	octave 3
	C# 1
	C# 1
	octave 2
	D_ 1
	D_ 1
	octave 3
	D_ 1
	D_ 1
	octave 2
	D# 1
	D# 1
	octave 3
	D# 1
	D# 1
	octave 2
	E_ 1
	E_ 1
	octave 3
	E_ 1
	E_ 1
Music_RockTunnel_Ch3_loop:
	callchannel Music_RockTunnel_Ch3_loop_sub_2
	callchannel Music_RockTunnel_Ch3_loop_sub_2
	callchannel Music_RockTunnel_Ch3_loop_sub_2
	callchannel Music_RockTunnel_Ch3_loop_sub_2
	callchannel Music_RockTunnel_Ch3_loop_sub_0
	callchannel Music_RockTunnel_Ch3_loop_sub_0
	callchannel Music_RockTunnel_Ch3_loop_sub_0
	callchannel Music_RockTunnel_Ch3_loop_sub_0
	callchannel Music_RockTunnel_Ch3_loop_sub_0
	octave 1
	D# 1
	D# 1
	D# 1
	D# 1
	octave 2
	D# 1
	D# 1
	octave 1
	D# 1
	D# 1
	octave 2
	C# 1
	C# 1
	D_ 1
	D_ 1
	rest 2
	D# 1
	D# 1
	octave 1
	D# 1
	D# 1
	rest 6
	B_ 1
	octave 2
	C_ 1
	octave 1
	B_ 1
	octave 2
	C_ 1
	octave 1
	B_ 1
	octave 2
	C_ 1
	octave 1
	B_ 1
	octave 2
	C_ 1
	callchannel Music_RockTunnel_Ch3_loop_sub_0
	callchannel Music_RockTunnel_Ch3_loop_sub_0
	callchannel Music_RockTunnel_Ch3_loop_sub_0
	octave 4
	C# 1
	callchannel Music_RockTunnel_Ch3_loop_sub_4
	callchannel Music_RockTunnel_Ch3_loop_sub_4
	callchannel Music_RockTunnel_Ch3_loop_sub_4
	G_ 1
	callchannel Music_RockTunnel_Ch3_loop_sub_1
	octave 1
	callchannel Music_RockTunnel_Ch3_loop_sub_3
	callchannel Music_RockTunnel_Ch3_loop_sub_3
	callchannel Music_RockTunnel_Ch3_loop_sub_3
	F# 1
	G_ 1
	F# 1
	G_ 1
	F# 1
	F_ 1
	E_ 1
	D# 1
	callchannel Music_RockTunnel_Ch3_loop_sub_1
	octave 2
	C_ 1
	rest 1
	octave 5
	E_ 1
	rest 1
	C_ 1
	rest 1
	octave 4
	callchannel Music_RockTunnel_Ch3_loop_sub_5
	octave 3
	callchannel Music_RockTunnel_Ch3_loop_sub_5
	octave 2
	A# 1
	rest 1
	octave 1
	callchannel Music_RockTunnel_Ch3_loop_sub_3
	loopchannel 0, Music_RockTunnel_Ch3_loop
Music_RockTunnel_Ch3_loop_sub_0:
	octave 1
	D# 1
	D# 1
	D# 1
	D# 1
	octave 2
	D# 1
	D# 1
	octave 1
	D# 1
	D# 1
	octave 2
	C# 1
	C# 1
	D_ 1
	D_ 1
	rest 2
	D# 1
	D# 1
	octave 1
	D# 1
	D# 1
	D# 1
	D# 1
	octave 2
	D# 1
	D# 1
	octave 1
	D# 1
	D# 1
	D# 1
	D# 1
	octave 2
	D# 1
	D# 1
	octave 1
	E_ 1
	E_ 1
	octave 2
	E_ 1
	E_ 1
	endchannel
Music_RockTunnel_Ch3_loop_sub_1:
	octave 3
	E_ 1
	rest 5
	E_ 1
	rest 3
	E_ 1
	rest 1
	D# 1
	rest 1
	E_ 1
	rest 1
	octave 4
	C_ 1
	rest 5
	octave 3
	E_ 1
	rest 5
	D# 1
	rest 1
	E_ 1
	rest 5
	G_ 1
	rest 1
	A_ 1
	rest 5
	G_ 1
	rest 1
	A_ 1
	notetype 12, 1, 2
	rest 8
	notetype 6, 1, 2
	rest 1
	E_ 1
	rest 5
	E_ 1
	rest 3
	E_ 1
	rest 1
	D# 1
	rest 1
	E_ 1
	rest 1
	octave 4
	C_ 1
	rest 5
	octave 3
	E_ 1
	rest 5
	G_ 1
	rest 1
	octave 4
	E_ 1
	rest 1
	endchannel
Music_RockTunnel_Ch3_loop_sub_2:
	octave 1
	D# 1
	rest 1
	D# 1
	rest 1
	octave 2
	D# 1
	rest 1
	octave 1
	D# 1
	rest 1
	octave 2
	C# 1
	rest 1
	D_ 1
	rest 3
	D# 1
	rest 1
	endchannel
Music_RockTunnel_Ch3_loop_sub_3:
	F# 1
	G_ 1
	F# 1
	G_ 1
	F# 1
	G_ 1
	F# 1
	G_ 1
	endchannel
Music_RockTunnel_Ch3_loop_sub_4:
	G_ 1
	C# 1
	G_ 1
	C# 1
	G_ 1
	C# 1
	G_ 1
	C# 1
	G_ 1
	C# 1
	endchannel
Music_RockTunnel_Ch3_loop_sub_5:
	A# 1
	rest 1
	G_ 1
	rest 1
	E_ 1
	rest 1
	C_ 1
	rest 1
	endchannel
Music_RockTunnel_Ch4::
	toggleperfectpitch
	dspeed 12
	mutedsnare1 8
	dspeed 8
	mutedsnare1 1
	mutedsnare1 1
	mutedsnare3 1
	dspeed 12
	mutedsnare1 1
	mutedsnare1 1
	mutedsnare1 1
	mutedsnare3 1
	mutedsnare1 1
	mutedsnare1 1
Music_RockTunnel_Ch4_loop:
	mutedsnare1 1
	mutedsnare1 1
	mutedsnare3 1
	rest 1
	mutedsnare1 1
	mutedsnare1 1
	mutedsnare3 1
	mutedsnare1 1
	mutedsnare1 1
	mutedsnare3 1
	rest 1
	mutedsnare1 1
	mutedsnare1 1
	mutedsnare3 1
	rest 1
	mutedsnare1 1
	mutedsnare1 1
	mutedsnare3 1
	mutedsnare1 1
	mutedsnare1 1
	mutedsnare3 1
	rest 1
	mutedsnare1 1
	mutedsnare1 1
	mutedsnare3 1
	rest 1
	mutedsnare1 1
	mutedsnare1 1
	mutedsnare3 1
	mutedsnare1 1
	mutedsnare1 1
	mutedsnare3 1
	rest 1
	mutedsnare1 1
	mutedsnare1 1
	mutedsnare3 1
	rest 1
	mutedsnare1 1
	mutedsnare1 1
	mutedsnare3 1
	mutedsnare1 1
	mutedsnare1 1
	mutedsnare3 1
	rest 1
	mutedsnare1 1
	mutedsnare1 1
	mutedsnare3 1
	rest 1
	mutedsnare1 1
	mutedsnare1 1
	mutedsnare3 1
	mutedsnare1 1
	mutedsnare1 1
	mutedsnare3 1
	rest 1
	mutedsnare1 1
	mutedsnare1 1
	mutedsnare3 1
	rest 1
	mutedsnare1 1
	mutedsnare1 1
	mutedsnare3 1
	mutedsnare1 1
	mutedsnare1 1
	mutedsnare3 1
	rest 1
	mutedsnare1 1
	mutedsnare1 1
	mutedsnare3 1
	rest 1
	mutedsnare1 1
	mutedsnare1 1
	mutedsnare3 1
	mutedsnare1 1
	mutedsnare1 1
	mutedsnare3 1
	rest 1
	mutedsnare1 1
	mutedsnare1 1
	mutedsnare3 1
	rest 1
	mutedsnare1 1
	mutedsnare1 1
	mutedsnare3 1
	mutedsnare1 1
	mutedsnare1 1
	mutedsnare3 1
	rest 1
	mutedsnare1 1
	mutedsnare1 1
	mutedsnare3 1
	rest 1
	mutedsnare1 1
	mutedsnare1 1
	mutedsnare3 1
	mutedsnare1 1
	mutedsnare1 1
	mutedsnare3 1
	rest 1
	mutedsnare1 1
	mutedsnare1 1
	mutedsnare3 1
	rest 1
	mutedsnare1 1
	mutedsnare1 1
	mutedsnare3 1
	mutedsnare1 1
	mutedsnare1 1
	mutedsnare3 1
	rest 1
	mutedsnare1 1
	mutedsnare1 1
	mutedsnare3 1
	rest 1
	mutedsnare1 1
	mutedsnare1 1
	mutedsnare3 1
	mutedsnare1 1
	mutedsnare1 1
	mutedsnare3 1
	rest 1
	loopchannel 0, Music_RockTunnel_Ch4_loop
