Music_SafariZone_Ch1:
	tempo 208
	volume 7, 7
	duty 0
	vibrato 8, 1, 5
	notetype 12, 8, 2
	rest 14
	octave 2
Music_SafariZone_Ch1_loop:
	C_ 3
	C_ 3
	C_ 3
	C_ 3
	C_ 1
	duty 2
	octave 4
	D# 2
	G# 1
	octave 5
	C_ 3
	octave 4
	C_ 2
	D# 1
	F_ 3
	F_ 2
	G# 1
	octave 5
	C# 3
	octave 4
	F_ 3
	G_ 3
	D# 2
	G_ 1
	A# 3
	D# 2
	octave 5
	C# 1
	C_ 1
	C_ 1
	octave 4
	B_ 1
	octave 5
	C_ 2
	octave 4
	G# 1
	D# 2
	G# 1
	C_ 1
	C# 1
	D# 1
	duty 0
	F_ 2
	F_ 1
	C# 1
	F_ 1
	G# 1
	octave 5
	C# 3
	octave 4
	F_ 3
	D# 2
	D# 1
	C_ 1
	D# 1
	G# 1
	octave 5
	C_ 3
	octave 4
	D# 3
	duty 2
	D_ 3
	D_ 3
	octave 3
	A# 3
	octave 4
	F_ 3
	duty 0
	D# 1
	D# 1
	F_ 1
	D# 1
	G_ 1
	A# 1
	octave 5
	D# 2
	D# 1
	octave 4
	D# 3
	duty 2
	callchannel Music_SafariZone_Ch1_branch_1
	duty 3
	C# 3
	octave 3
	F_ 1
	G# 1
	octave 4
	C# 1
	D# 3
	octave 3
	G# 1
	octave 4
	C# 1
	D# 1
	F_ 3
	octave 6
	duty 2
	C# 3
	octave 5
	F_ 2
	F_ 1
	G# 3
	octave 4
	duty 3
	G_ 5
	G# 1
	G_ 3
	F_ 3
	D# 3
	C# 3
	C_ 3
	octave 3
	A# 3
	G# 3
	G# 2
	G_ 1
	G# 1
	rest 2
	A# 1
	rest 2
	G_ 3
	octave 5
	duty 2
	D# 2
	F_ 1
	D# 3
	C# 3
	callchannel Music_SafariZone_Ch1_branch_1
	duty 3
	C# 3
	octave 3
	F_ 1
	G# 1
	octave 4
	C# 1
	F_ 3
	octave 3
	F_ 1
	G# 1
	octave 4
	C# 1
	G# 3
	duty 2
	octave 3
	F_ 3
	D# 3
	D_ 3
	octave 4
	D# 2
	D# 1
	octave 5
	D# 3
	octave 4
	D# 2
	D# 1
	octave 5
	D# 3
	octave 4
	D# 2
	D# 1
	octave 5
	D# 3
	octave 4
	D# 2
	D# 1
	octave 5
	D# 3
	duty 0
	octave 3
	F_ 3
	octave 2
	G# 1
	octave 3
	C# 1
	F_ 1
	G# 1
	rest 2
	octave 4
	duty 3
	F_ 3
	duty 0
	octave 3
	F_ 3
	D_ 1
	F_ 1
	G# 1
	octave 4
	D_ 1
	rest 2
	duty 3
	F_ 3 
	duty 2
	G# 3
	B_ 3
	octave 5
	C_ 3
	octave 4
	G# 3
	G_ 3
	octave 3
	G_ 3
	D# 1
	G_ 1
	A# 1
	octave 4
	C# 3
	duty 0
	octave 3
	G# 12
	rest 14
	octave 2
	C_ 3
	C_ 3
	C_ 3
	C_ 3
	loopchannel 0, Music_SafariZone_Ch1_loop
	
Music_SafariZone_Ch1_branch_1:
	octave 4
	G# 5
	A# 1
	octave 5
	C_ 3
	octave 4
	A# 3
	G# 3
	G_ 3
	F_ 3
	D# 3
	endchannel

Music_SafariZone_Ch2:
	duty 2
	vibrato 12, 2, 5
	callchannel Music_SafariZone_Ch2_branch_2
	notetype 12, 10, 2
	G# 12
Music_SafariZone_Ch2_loop:
	duty 1
	octave 3
	D# 2
	D_ 1
	D# 3
	G# 2
	G_ 1
	G# 3
	F_ 2
	E_ 1
	F_ 2
	G_ 1
	G# 3
	rest 3
	A# 2
	G# 1
	G_ 3
	G_ 2
	F_ 1
	D# 3
	G# 1
	G# 1
	G_ 1
	G# 2
	F_ 1
	D# 3
	rest 3
	duty 2
	G# 2
	G_ 1
	G# 2
	A# 1
	G# 3
	rest 3
	G# 2
	G_ 1
	G# 2
	A# 1
	G# 3
	rest 3
	duty 1
	G_ 2
	G# 1
	G_ 2
	G# 1
	A# 2
	F_ 1
	G_ 2
	G# 1
	A# 9
	notetype 3, 5, 2
	rest 6
	D# 1
	F_ 1
	G_ 1
	G# 1
	A# 1
	B_ 1
	notetype 12, 12, 7
	callchannel Music_SafariZone_Ch2_branch_1
	F_ 3
	rest 3
	G_ 3
	rest 3
	G# 3
	G# 9
	duty 0
	A# 5
	octave 4
	C_ 1
	octave 3
	A# 3
	G# 3
	G_ 3
	F_ 3
	D# 3
	C# 3
	C_ 3
	C_ 2
	octave 2
	B_ 1
	octave 3
	C_ 3
	C# 3
	D# 3
	D# 9
	duty 1
	callchannel Music_SafariZone_Ch2_branch_1
	G# 3
	rest 3
	octave 4
	C# 3
	rest 3
	F_ 3
	duty 0
	octave 3
	G# 3
	G_ 3
	F_ 3
	duty 3
	D# 3
	rest 3
	F_ 3
	rest 3
	G_ 3
	rest 3
	G# 3
	rest 3
	duty 2
	A# 1
	rest 2
	octave 4
	C# 1
	rest 2
	F_ 1
	rest 2
	octave 3
	F_ 3
	G_ 1
	rest 2
	G# 1
	rest 2
	G_ 1
	rest 2
	F_ 3
	duty 0
	D# 3
	D_ 3
	D# 3
	F_ 3
	D# 3
	D# 2
	octave 4
	C# 1
	C_ 3
	octave 3
	G_ 3
	duty 2
	callchannel Music_SafariZone_Ch2_branch_2
	octave 4
	G# 4
	octave 5
	D# 2
	C_ 2
	C# 2
	D# 2
	F# 4
	F_ 1
	E_ 1
	D# 4
	F_ 1
	G_ 1
	notetype 12, 10, 2
	G# 12
	rest 12
	loopchannel 0, Music_SafariZone_Ch2_loop

Music_SafariZone_Ch2_branch_1:
	octave 4
	C_ 5
	C# 1
	D# 3
	C# 3
	C_ 3
	octave 3
	A# 3
	G# 3
	G_ 3
	endchannel
	
Music_SafariZone_Ch2_branch_2:
	notetype 6, 10, 2
	octave 4
	C_ 4
	octave 3
	B_ 2
	octave 4
	C_ 2
	C# 2
	D# 2
	F# 4
	F_ 1
	E_ 1
	D# 4
	F_ 1
	G_ 1
	endchannel


Music_SafariZone_Ch3:
	vibrato 12, 1, 5
	callchannel Music_SafariZone_Ch3_branch_5
Music_SafariZone_Ch3_loop:
	callchannel Music_SafariZone_Ch3_branch_1
	callchannel Music_SafariZone_Ch3_branch_1
	callchannel Music_SafariZone_Ch3_branch_1
	callchannel Music_SafariZone_Ch3_branch_1
	callchannel Music_SafariZone_Ch3_branch_2
	callchannel Music_SafariZone_Ch3_branch_2
	octave 2
	D# 2
	rest 2
	octave 4
	C# 2
	octave 2
	A# 2
	rest 2
	octave 4
	C# 2
	octave 2
	D# 2
	rest 2
	octave 4
	C# 2
	octave 2
	A# 2
	rest 2
	octave 3
	G_ 2
	callchannel Music_SafariZone_Ch3_branch_1
	callchannel Music_SafariZone_Ch3_branch_1
	callchannel Music_SafariZone_Ch3_branch_3
	octave 3
	C# 1
	rest 1
	F_ 1
	rest 1
	G# 1
	rest 1
	octave 4
	F_ 2
	rest 4 
	callchannel Music_SafariZone_Ch3_branch_4
	octave 3
	C_ 1
	rest 1
	D# 1
	rest 1
	G# 1
	rest 1
	octave 4
	D# 2
	rest 4 
	octave 2
	D_ 2
	rest 2
	octave 3
	F_ 2
	octave 1
	A# 2
	rest 2
	octave 3
	F_ 2
	octave 2
	C_ 2
	rest 2
	octave 4
	D_ 2
	octave 2
	D_ 2
	rest 2
	octave 4
	D_ 2
	octave 2
	D# 2
	rest 2
	octave 3
	G_ 2
	octave 2
	A# 2
	rest 4
	octave 3
	D# 2
	rest 2
	A# 2
	octave 2
	D# 2
	rest 4
	G# 2
	rest 4
	D# 2
	rest 4
	G# 2
	rest 4
	D# 2
	rest 4
	G# 2
	rest 4
	D# 2
	rest 4
	octave 3
	C_ 2
	rest 4
	octave 2
	D# 2
	rest 4
	C# 2
	rest 4
	G# 2
	rest 4
	C# 2
	rest 4
	G# 2
	rest 4
	octave 3
	C# 2
	rest 4
	octave 2
	G# 2
	rest 4
	F_ 2
	rest 4
	G# 2
	rest 4
	D# 2
	rest 4
	A# 2
	rest 4
	D# 2
	rest 4
	A# 2
	rest 4
	D# 2
	rest 4
	D# 2
	rest 4
	F_ 2
	rest 4
	G_ 2
	rest 4
	G# 2
	rest 4
	octave 3
	D# 2
	rest 4
	octave 2
	G# 2
	rest 4
	octave 3
	D# 2
	rest 4
	octave 2
	A# 2
	rest 4
	D# 2
	rest 4
	F_ 2
	rest 4
	G_ 2
	rest 4
	G# 2
	rest 4
	D# 2
	rest 4
	G# 2
	rest 4
	D# 2
	rest 4
	G# 2
	rest 4
	D# 2
	rest 4
	G# 2
	rest 4
	octave 3
	C_ 2
	rest 4
	C# 2
	rest 4
	octave 2
	G# 2
	rest 4
	octave 3
	C# 2
	rest 4
	octave 2
	G# 2
	rest 4
	octave 3
	D_ 2
	rest 4
	octave 2
	D_ 2
	rest 4
	D# 2
	rest 4
	F_ 2
	rest 4
	octave 4
	notetype 12, 1, 4
	C_ 2
	rest 1
	octave 2
	D# 2
	rest 1
	octave 4
	D_ 2
	rest 1
	octave 2
	D# 2
	rest 1
	octave 4
	C# 2
	rest 1
	octave 2
	D# 2
	rest 1
	octave 4
	C_ 2
	rest 1
	octave 2
	D# 2
	rest 1
	C# 1
	rest 11
	D_ 1
	rest 14
	D# 2
	rest 4
	D# 2
	rest 1
	D# 2
	rest 1
	D# 2
	rest 4
	D# 1
	rest 1
	D# 1
	callchannel Music_SafariZone_Ch3_branch_5
	callchannel Music_SafariZone_Ch3_branch_5
	callchannel Music_SafariZone_Ch3_branch_1
	callchannel Music_SafariZone_Ch3_branch_1
	loopchannel 0, Music_SafariZone_Ch3_loop
	
Music_SafariZone_Ch3_branch_1:
	octave 2
	G# 2
	rest 2
	octave 4
	D# 2
	octave 2
	D# 2
	rest 2
	octave 4
	D# 2
	endchannel
	
Music_SafariZone_Ch3_branch_2:
	octave 2
	C# 2
	rest 2
	octave 4
	C# 2
	octave 2
	G# 2
	rest 2
	octave 4
	C# 2
	endchannel
	
Music_SafariZone_Ch3_branch_3:
	octave 2
	C# 2
	rest 2
	octave 4
	C# 2
	octave 2
	C# 2
	rest 2
	octave 4
	C# 2
	endchannel
	
Music_SafariZone_Ch3_branch_4:
	octave 2
	G# 2
	rest 2
	octave 4
	C_ 2
	octave 2
	G# 2
	rest 2
	octave 4
	C_ 2
	endchannel
	
Music_SafariZone_Ch3_branch_5:
	notetype 6, 1, 4
	octave 2
	G# 2
	rest 2
	G# 1
	rest 1
	G# 1
	rest 1
	G_ 1
	rest 1
	G# 1
	rest 1
	octave 3
	D# 4
	rest 2
	octave 2
	D# 4
	F_ 1
	G_ 1
	endchannel

Music_SafariZone_Ch4:
	toggleperfectpitch
	notetype 12, 1, 1
	rest 12
Music_SafariZone_Ch4_loop:
	callchannel Music_SafariZone_Ch4_branch_5
	callchannel Music_SafariZone_Ch4_branch_1
	callchannel Music_SafariZone_Ch4_branch_1
	callchannel Music_SafariZone_Ch4_branch_2
	callchannel Music_SafariZone_Ch4_branch_2
	callchannel Music_SafariZone_Ch4_branch_5
	callchannel Music_SafariZone_Ch4_branch_2
	callchannel Music_SafariZone_Ch4_branch_3
	callchannel Music_SafariZone_Ch4_branch_5
	snare3 2
	snare2 1
	snare2 1
	snare2 1
	snare2 1
	snare3 2
	snare2 1
	snare2 1
	snare2 1
	snare2 1
	callchannel Music_SafariZone_Ch4_branch_5
	callchannel Music_SafariZone_Ch4_branch_3
	callchannel Music_SafariZone_Ch4_branch_4
	callchannel Music_SafariZone_Ch4_branch_5
	callchannel Music_SafariZone_Ch4_branch_4
	callchannel Music_SafariZone_Ch4_branch_3
	callchannel Music_SafariZone_Ch4_branch_4
	callchannel Music_SafariZone_Ch4_branch_5
	callchannel Music_SafariZone_Ch4_branch_4
	snare4 3
	snare4 3
	snare4 3
	snare4 3
	snare4 3
	snare4 3
	snare4 3
	snare4 3
	snare3 2
	snare2 1
	snare2 1
	snare2 1
	snare2 1
	snare4 3
	snare4 3
	snare3 2
	snare2 1
	snare2 1
	snare2 1
	snare2 1
	snare4 3
	snare4 3
	callchannel Music_SafariZone_Ch4_branch_5
	snare4 3
	triangle2 6
	snare4 3
	cymbal2 12
	rest 12
	callchannel Music_SafariZone_Ch4_branch_5
	loopchannel 0, Music_SafariZone_Ch4_loop
	
Music_SafariZone_Ch4_branch_1:
	snare3 2
	snare2 1
	snare4 3
	snare3 2
	snare2 1
	snare4 3
	snare3 2
	snare2 1
	snare3 2
	snare2 1
	snare3 2
	snare2 1
	snare4 3
	endchannel
	
Music_SafariZone_Ch4_branch_2:
	snare3 2
	snare2 1
	snare2 1
	snare2 1
	snare2 1
	triangle2 6
	endchannel
	
Music_SafariZone_Ch4_branch_3:
	snare3 2
	snare2 1
	snare2 1
	snare2 1
	snare2 1
	snare3 2
	snare2 1
	snare4 3
	endchannel
	
Music_SafariZone_Ch4_branch_4:
	snare4 3
	snare2 1
	snare2 1
	snare2 1
	snare3 2
	snare2 1
	snare2 1
	snare2 1
	snare2 1
	endchannel
	
Music_SafariZone_Ch4_branch_5:
	snare3 2
	snare2 1
	snare4 3
	snare3 2
	snare2 1
	snare4 3
	endchannel