Music_SafariZoneGate_Ch1::
	tempo 164
	vibrato 8, 1, 5
	duty 0
	volume 7, 7
	notetype 12, 8, 6
	octave 3
	C# 4
	D_ 1
	C# 2
	C# 2
	octave 2
	B_ 1
	A_ 4
	G# 1
	A_ 1
	A_ 1
	F# 1
	F# 2
	F# 2
	E_ 1
	F# 1
	E_ 1
	F# 1
	G# 2
	E_ 1
	G# 2
	octave 3
	C# 7
	D_ 1
	C# 3
	F# 2
	E_ 1
	F# 1
	E_ 2
	F# 2
	F# 1
	F# 3
	octave 2
	G# 2
	A_ 1
	G# 2
	G# 1
	A_ 1
	B_ 1
	octave 4
	D_ 1
	C# 7
	octave 3
	B_ 1
	A_ 3
	E_ 2
	A_ 1
	A_ 2
	octave 4
	C# 3
	octave 3
	A_ 2
	F# 1
	F# 1
	A_ 2
	F# 2
	E_ 2
	D_ 2
	D_ 1
	C# 3
	duty 2
	C# 2
	C# 2
	octave 2
	A_ 2
	octave 3
	A_ 1
	A_ 2
	octave 4
	C# 7
	octave 3
	F# 2
	F# 2
	octave 2
	A_ 2
	octave 3
	G# 1
	G# 2
	B_ 2
	duty 0
	B_ 1
	B_ 2
	octave 4
	C# 3
	C# 3
	octave 3
	E_ 4
	E_ 2
	A_ 2
	E_ 2
	F# 3
	octave 2
	A_ 3
	octave 3
	F# 4
	E_ 2
	D_ 2
	E_ 2
	duty 2
	octave 2
	A_ 1
	rest 5
	octave 1
	A_ 1
	rest 7
	octave 2
	C# 2
	D_ 1
	rest 5
	E_ 1
	rest 7
	G# 2
	A_ 2
	octave 1
	A_ 1
	rest 3
	octave 2
	A_ 1
	rest 3
	octave 1
	A_ 1
	rest 2
	octave 2
	C# 3
	D_ 1
	rest 1
	D_ 1
	rest 3
	D_ 1
	rest 3
	E_ 3
	octave 1
	E_ 3
	octave 2
	A_ 2
	octave 1
	A_ 2
	rest 12
	octave 2
	D_ 2
	octave 1
	D_ 2
	rest 7
	notetype 6, 7, 5
	A# 1
	B_ 1
	octave 2
	A_ 2
	E_ 2
	F# 2
	E_ 2
	D_ 16
	C# 16
	D_ 16
	E_ 16
	notetype 12, 7, 5
	octave 4
	A_ 16
	rest 16
	rest 16
	rest 16
Music_SafariZoneGate_Ch1_loop:
	duty 0
	notetype 12, 8, 6
	octave 3
	C# 4
	D_ 1
	C# 2
	C# 2
	octave 2
	B_ 1
	A_ 4
	G# 1
	A_ 1
	A_ 1
	F# 1
	F# 2
	F# 2
	E_ 1
	F# 1
	E_ 1
	F# 1
	G# 2
	E_ 1
	G# 2
	octave 3
	C# 7
	D_ 1
	C# 3
	F# 2
	E_ 1
	F# 1
	E_ 2
	F# 2
	F# 1
	F# 3
	octave 2
	G# 2
	A_ 1
	G# 2
	G# 1
	A_ 1
	B_ 1
	octave 4
	D_ 1
	C# 7
	octave 3
	B_ 1
	A_ 3
	E_ 2
	A_ 1
	A_ 2
	octave 4
	C# 3
	octave 3
	A_ 2
	F# 1
	F# 1
	A_ 2
	F# 2
	E_ 2
	D_ 2
	D_ 1
	C# 3
	duty 2
	C# 2
	C# 2
	octave 2
	A_ 2
	octave 3
	A_ 1
	A_ 2
	octave 4
	C# 7
	octave 3
	F# 2
	F# 2
	octave 2
	A_ 2
	octave 3
	G# 1
	G# 2
	B_ 2
	duty 0
	B_ 1
	B_ 2
	octave 4
	C# 3
	C# 3
	octave 3
	E_ 4
	E_ 2
	A_ 2
	E_ 2
	F# 3
	octave 2
	A_ 3
	octave 3
	F# 4
	E_ 2
	D_ 2
	E_ 2
	duty 2
	octave 2
	A_ 1
	rest 5
	octave 1
	A_ 1
	rest 7
	octave 2
	C# 2
	D_ 1
	rest 5
	E_ 1
	rest 7
	G# 2
	A_ 2
	octave 1
	A_ 1
	rest 3
	octave 2
	A_ 1
	rest 3
	octave 1
	A_ 1
	rest 2
	octave 2
	C# 3
	D_ 1
	rest 1
	D_ 1
	rest 3
	D_ 1
	rest 3
	E_ 3
	octave 1
	E_ 3
	octave 2
	A_ 2
	octave 1
	A_ 2
	rest 12
	octave 2
	D_ 2
	octave 1
	D_ 2
	rest 7
	notetype 6, 7, 5
	A# 1
	B_ 1
	octave 2
	A_ 2
	E_ 2
	F# 2
	E_ 2
	D_ 16
	C# 16
	D_ 16
	E_ 16
	notetype 12, 7, 5
	octave 4
	A_ 16
	rest 16
	rest 16
	rest 16
	loopchannel 0, Music_SafariZoneGate_Ch1_loop
Music_SafariZoneGate_Ch2_sub_0:
	D_ 1
	C# 2
	C# 2
	octave 3
	B_ 1
	A_ 3
	A_ 1
	octave 4
	C# 1
	G# 1
	A_ 3
	F# 3
	D_ 2
	octave 3
	B_ 1
	B_ 1
	octave 4
	E_ 2
	D_ 1
	E_ 2
	endchannel
Music_SafariZoneGate_Ch2::
	vibrato 12, 2, 5
	duty 3
	notetype 12, 9, 6
	octave 3
	E_ 4
	F# 1
	E_ 2
	E_ 2
	D_ 1
	C# 4
	octave 2
	B_ 1
	octave 3
	C# 1
	C# 1
	D_ 1
	D_ 2
	D_ 2
	C# 1
	D_ 1
	C# 1
	D_ 1
	E_ 2
	F# 1
	E_ 2
	E_ 7
	F# 1
	A_ 3
	octave 4
	D_ 2
	C# 1
	D_ 1
	C# 2
	octave 3
	A_ 2
	B_ 1
	A_ 3
	E_ 2
	F# 1
	E_ 2
	E_ 1
	F# 1
	A_ 1
	octave 4
	F# 1
	E_ 7
	D_ 1
	C# 3
	D_ 2
	E_ 1
	F# 2
	E_ 3
	F# 2
	octave 3
	A_ 1
	B_ 1
	octave 4
	C# 2
	D_ 2
	C# 2
	octave 3
	A_ 2
	B_ 1
	A_ 3
	duty 2
	A_ 2
	A_ 2
	E_ 2
	duty 0
	octave 4
	E_ 1
	E_ 2
	E_ 7
	duty 2
	octave 3
	A_ 2
	A_ 2
	E_ 2
	duty 0
	octave 4
	E_ 1
	E_ 2
	E_ 2
	duty 3
	F# 1
	E_ 2
	F# 3
	E_ 3
	octave 3
	A_ 4
	octave 4
	D_ 2
	C# 2
	octave 3
	B_ 2
	A_ 3
	E_ 3
	octave 4
	D_ 4
	C# 2
	octave 3
	B_ 2
	octave 4
	C# 2
	duty 2
	octave 3
	A_ 3
	G# 3
	A_ 4
	E_ 2
	A_ 2
	B_ 2
	octave 4
	C# 3
	D_ 3
	octave 3
	F# 4
	A_ 2
	G# 1
	A_ 1
	B_ 2
	octave 4
	C# 2
	D_ 2
	E_ 2
	F# 1
	E_ 9
	C# 1
	C# 1
	D_ 2
	E_ 2
	F# 1
	E_ 9
	E_ 2
	C# 2
	A_ 3
	G# 2
	A_ 1
	B_ 2
	A_ 4
	A_ 1
	A_ 1
	E_ 2
	A_ 3
	G# 2
	A_ 1
	B_ 2
	A_ 1
	G# 1
	F# 1
	G# 1
	A_ 2
	A_ 2
	octave 5
	D_ 1
	C# 1
	octave 4
	B_ 1
	A_ 3
	A_ 2
	C# 1
	D_ 1
	E_ 1
	F# 3
	A_ 2
	octave 5
	D_ 2
	octave 4
	F# 1
	A_ 2
	A_ 1
	G# 2
	F# 2
	G# 2
	duty 1
	C# 4
	callchannel Music_SafariZoneGate_Ch2_sub_0
	C# 3
	C# 2
	callchannel Music_SafariZoneGate_Ch2_sub_0
	rest 1
Music_SafariZoneGate_Ch2_loop:
	duty 3
	octave 3
	E_ 4
	F# 1
	E_ 2
	E_ 2
	D_ 1
	C# 4
	octave 2
	B_ 1
	octave 3
	C# 1
	C# 1
	D_ 1
	D_ 2
	D_ 2
	C# 1
	D_ 1
	C# 1
	D_ 1
	E_ 2
	F# 1
	E_ 2
	E_ 7
	F# 1
	A_ 3
	octave 4
	D_ 2
	C# 1
	D_ 1
	C# 2
	octave 3
	A_ 2
	B_ 1
	A_ 3
	E_ 2
	F# 1
	E_ 2
	E_ 1
	F# 1
	A_ 1
	octave 4
	F# 1
	E_ 7
	D_ 1
	C# 3
	D_ 2
	E_ 1
	F# 2
	E_ 3
	F# 2
	octave 3
	A_ 1
	B_ 1
	octave 4
	C# 2
	D_ 2
	C# 2
	octave 3
	A_ 2
	B_ 1
	A_ 3
	duty 2
	A_ 2
	A_ 2
	E_ 2
	duty 0
	octave 4
	E_ 1
	E_ 2
	E_ 7
	duty 2
	octave 3
	A_ 2
	A_ 2
	E_ 2
	duty 0
	octave 4
	E_ 1
	E_ 2
	E_ 2
	duty 3
	F# 1
	E_ 2
	F# 3
	E_ 3
	octave 3
	A_ 4
	octave 4
	D_ 2
	C# 2
	octave 3
	B_ 2
	A_ 3
	E_ 3
	octave 4
	D_ 4
	C# 2
	octave 3
	B_ 2
	octave 4
	C# 2
	duty 2
	octave 3
	A_ 3
	G# 3
	A_ 4
	E_ 2
	A_ 2
	B_ 2
	octave 4
	C# 3
	D_ 3
	octave 3
	F# 4
	A_ 2
	G# 1
	A_ 1
	B_ 2
	octave 4
	C# 2
	D_ 2
	E_ 2
	F# 1
	E_ 9
	C# 1
	C# 1
	D_ 2
	E_ 2
	F# 1
	E_ 9
	E_ 2
	C# 2
	A_ 3
	G# 2
	A_ 1
	B_ 2
	A_ 4
	A_ 1
	A_ 1
	E_ 2
	A_ 3
	G# 2
	A_ 1
	B_ 2
	A_ 1
	G# 1
	F# 1
	G# 1
	A_ 2
	A_ 2
	octave 5
	D_ 1
	C# 1
	octave 4
	B_ 1
	A_ 3
	A_ 2
	C# 1
	D_ 1
	E_ 1
	F# 3
	A_ 2
	octave 5
	D_ 2
	octave 4
	F# 1
	A_ 2
	A_ 1
	G# 2
	F# 2
	G# 2
	duty 1
	C# 4
	callchannel Music_SafariZoneGate_Ch2_loop_sub_0
	C# 3
	C# 2
	callchannel Music_SafariZoneGate_Ch2_loop_sub_0
	rest 1
	loopchannel 0, Music_SafariZoneGate_Ch2_loop
Music_SafariZoneGate_Ch2_loop_sub_0:
	D_ 1
	C# 2
	C# 2
	octave 3
	B_ 1
	A_ 3
	A_ 1
	octave 4
	C# 1
	G# 1
	A_ 3
	F# 3
	D_ 2
	octave 3
	B_ 1
	B_ 1
	octave 4
	E_ 2
	D_ 1
	E_ 2
	endchannel
Music_SafariZoneGate_Ch3::
	notetype 12, 0, 0
	rest 16
	rest 12
Music_SafariZoneGate_Ch3_loop:
	vibrato 12, 1, 5
	notetype 12, 2, 5
	octave 2
	E_ 1
	octave 1
	B_ 1
	octave 2
	E_ 1
	G# 1
	A_ 3
	rest 5
	C# 1
	rest 3
	C# 1
	rest 2
	D_ 1
	rest 2
	D_ 1
	rest 1
	D_ 1
	rest 1
	F# 1
	rest 1
	E_ 2
	rest 2
	E_ 1
	rest 2
	A_ 5
	rest 4
	C# 1
	rest 3
	C# 1
	rest 2
	D_ 2
	rest 1
	D_ 1
	rest 1
	D_ 1
	rest 1
	F# 1
	rest 1
	E_ 1
	rest 3
	E_ 1
	rest 2
	E_ 1
	A_ 2
	rest 1
	A_ 1
	rest 3
	D_ 1
	E_ 2
	octave 1
	A_ 2
	rest 2
	B_ 1
	octave 2
	C# 1
	D_ 2
	rest 1
	D_ 1
	rest 2
	F# 1
	rest 1
	E_ 2
	rest 1
	E_ 1
	rest 2
	F# 1
	G# 1
	A_ 2
	rest 1
	A_ 1
	rest 2
	C# 1
	D_ 1
	E_ 2
	octave 1
	A_ 1
	rest 2
	A_ 1
	rest 2
	octave 2
	D_ 2
	C# 1
	D_ 1
	rest 2
	D_ 1
	D_ 1
	E_ 2
	F# 1
	E_ 1
	rest 1
	E_ 1
	F# 1
	G# 1
	rest 5
	notetype 1, 1, 4
	octave 3
	A_ 3
	octave 4
	D_ 3
	E_ 3
	A_ 3
	notetype 12, 1, 4
	octave 5
	D_ 4
	C# 1
	rest 10
	notetype 1, 1, 4
	octave 4
	E_ 3
	A_ 3
	B_ 3
	octave 5
	D_ 3
	notetype 12, 1, 4
	F# 4
	E_ 4
	D_ 2
	C# 4
	C# 2
	C# 2
	notetype 6, 1, 2
	C# 1
	rest 1
	C# 1
	rest 1
	D_ 2
	rest 2
	E_ 2
	rest 2
	A_ 2
	E_ 6
	F# 2
	rest 2
	A_ 2
	rest 2
	C# 2
	D_ 2
	E_ 2
	F# 2
	A_ 4
	G# 2
	A_ 2
	B_ 4
	A_ 2
	rest 2
	E_ 2
	rest 16
	A_ 1
	B_ 1
	octave 6
	C# 2
	octave 5
	B_ 2
	A_ 2
	B_ 2
	octave 6
	C# 1
	rest 1
	C# 1
	rest 1
	octave 5
	A_ 2
	rest 14
	octave 6
	C# 2
	D_ 2
	C# 2
	octave 5
	B_ 2
	A_ 2
	B_ 2
	octave 6
	C# 2
	rest 2
	C# 2
	rest 2
	F# 2
	E_ 2
	D_ 2
	C# 2
	rest 4
	C# 4
	octave 5
	E_ 2
	F# 2
	G# 2
	A_ 6
	F# 2
	rest 2
	A_ 4
	D_ 2
	F# 2
	rest 2
	F# 2
	E_ 2
	rest 2
	D_ 2
	rest 2
	octave 4
	B_ 2
	rest 2
	octave 5
	E_ 8
	callchannel Music_SafariZoneGate_Ch3_loop_sub_0
	A_ 2
	rest 4
	E_ 2
	rest 2
	callchannel Music_SafariZoneGate_Ch3_loop_sub_0
	A_ 10
	notetype 6, 2, 2
	A_ 8
	A_ 8
	notetype 12, 2, 2
	rest 16
	loopchannel 0, Music_SafariZoneGate_Ch3_loop
Music_SafariZoneGate_Ch3_loop_sub_0:
	F# 2
	E_ 2
	rest 2
	E_ 2
	rest 2
	D_ 2
	C# 2
	rest 4
	E_ 2
	A_ 2
	B_ 2
	octave 6
	C# 2
	rest 4
	D_ 2
	rest 4
	octave 5
	F# 2
	rest 2
	A_ 1
	rest 1
	A_ 2
	G# 2
	rest 2
	F# 2
	G# 2
	rest 2
	endchannel

Music_SafariZoneGate_Ch4::
    toggleperfectpitch
    dspeed 12
    rest 16
Music_SafariZoneGate_Ch4_loop_main:
    rest 12
    triangle1 1
    mutedsnare1 2
    triangle1 1
    mutedsnare1 3
    triangle1 1
Music_SafariZoneGate_Ch4_loop_1:
    mutedsnare1 3
    triangle1 1
    mutedsnare1 3
    triangle1 1
    loopchannel 15, Music_SafariZoneGate_Ch4_loop_1
Music_SafariZoneGate_Ch4_loop_2:
    callchannel Music_SafariZoneGate_Ch4_branch_1
    loopchannel 16, Music_SafariZoneGate_Ch4_loop_2
Music_SafariZoneGate_Ch4_loop_3:
    mutedsnare1 3
    triangle1 1
    mutedsnare1 3
    triangle1 1
    mutedsnare1 3
    triangle1 1
    mutedsnare1 3
    triangle1 1
    mutedsnare1 3
    triangle1 1
    mutedsnare1 3
    triangle1 1
    mutedsnare1 3
    triangle1 1
    mutedsnare1 3
    triangle1 1
    loopchannel 2, Music_SafariZoneGate_Ch4_loop_3
Music_SafariZoneGate_Ch4_loop_4:
    callchannel Music_SafariZoneGate_Ch4_branch_1
    loopchannel 4, Music_SafariZoneGate_Ch4_loop_4
    mutedsnare1 3
    triangle1 1
Music_SafariZoneGate_Ch4_loop_5:
    mutedsnare1 3
    triangle1 1
    mutedsnare1 3
    triangle1 1
    loopchannel 15, Music_SafariZoneGate_Ch4_loop_5
    mutedsnare1 36
    loopchannel 0, Music_SafariZoneGate_Ch4_loop_main
    endchannel
   
Music_SafariZoneGate_Ch4_branch_1:
    mutedsnare1 3
    triangle1 1
    mutedsnare1 3
    triangle1 1
    mutedsnare1 3
    triangle1 1
    mutedsnare1 3
    triangle1 1
    endchannel