Music_UnusedSong_Ch1_sub_0:
	octave 4
	E_ 1
	rest 1
	octave 3
	B_ 1
	rest 1
	octave 4
	C# 1
	rest 1
	octave 3
	B_ 1
	octave 4
	E_ 1
	rest 4
	E_ 2
	rest 2
	D# 1
	rest 1
	octave 3
	B_ 1
	rest 1
	octave 4
	C# 1
	rest 1
	octave 3
	B_ 1
	octave 4
	D# 1
	rest 8
	C# 1
	rest 1
	D# 1
	rest 1
	C# 1
	octave 3
	B_ 1
	rest 2
	octave 4
	C# 1
	rest 1
	D# 1
	rest 1
	C# 1
	octave 3
	B_ 1
	rest 2
	octave 4
	D# 4
	C# 4
	D# 1
	E_ 1
	rest 1
	F# 1
	rest 1
	octave 3
	B_ 2
	rest 1
	octave 4
	E_ 1
	rest 1
	octave 3
	B_ 1
	rest 1
	octave 4
	C# 1
	rest 1
	octave 3
	B_ 1
	octave 4
	E_ 1
	rest 4
	E_ 2
	rest 2
	D# 1
	rest 1
	octave 3
	B_ 1
	rest 1
	octave 4
	C# 1
	rest 1
	octave 3
	B_ 1
	octave 4
	D# 1
	rest 8
	C# 1
	rest 1
	D# 1
	rest 1
	C# 1
	octave 3
	B_ 1
	rest 2
	octave 4
	C# 1
	rest 1
	D# 1
	rest 1
	E_ 1
	F# 1
	rest 2
	F# 4
	E_ 4
	F# 1
	G# 1
	rest 1
	F# 1
	rest 1
	D# 2
	rest 3
	octave 3
	A_ 2
	rest 2
	B_ 2
	rest 2
	octave 4
	C# 2
	rest 2
	E_ 2
	F# 8
	rest 2
	E_ 2
	D# 2
	C# 2
	rest 2
	octave 3
	G# 2
	rest 2
	A_ 2
	rest 2
	B_ 2
	rest 2
	octave 4
	D# 2
	E_ 8
	rest 2
	D# 2
	C# 2
	D# 2
	octave 3
	A_ 2
	G# 2
	A_ 2
	A# 1
	B_ 1
	rest 4
	F# 2
	rest 2
	B_ 2
	A# 2
	B_ 2
	octave 4
	C_ 1
	C# 1
	rest 8
	octave 3
	F# 2
	F_ 2
	F# 2
	G# 2
	A_ 2
	octave 4
	E_ 2
	D# 2
	C# 2
	octave 3
	B_ 2
	rest 6
	B_ 2
	endchannel
Music_UnusedSong_Ch1::
	tempo 144
	volume 5, 5
	vibrato 8, 2, 4
	duty 3
	notetype 12, 12, 5
	callchannel Music_UnusedSong_Ch1_sub_0
	rest 6
	callchannel Music_UnusedSong_Ch1_sub_0
	rest 6
	callchannel Music_UnusedSong_Ch1_sub_0
	rest 6
	callchannel Music_UnusedSong_Ch1_sub_0
	endchannel
Music_UnusedSong_Ch2_sub_0:
	octave 4
	E_ 1
	rest 1
	G# 1
	rest 1
	F# 1
	rest 1
	A_ 1
	G# 1
	rest 8
	D# 1
	rest 1
	F# 1
	rest 1
	E_ 1
	rest 1
	G# 1
	F# 1
	rest 4
	octave 3
	B_ 2
	rest 2
	octave 4
	C# 1
	rest 1
	D# 1
	rest 1
	E_ 1
	F# 1
	rest 2
	C# 1
	rest 1
	D# 1
	rest 1
	E_ 1
	F# 1
	rest 2
	F# 4
	E_ 4
	F# 1
	G# 1
	rest 1
	F# 1
	rest 1
	D# 2
	rest 1
	E_ 1
	rest 1
	G# 1
	rest 1
	F# 1
	rest 1
	A_ 1
	G# 1
	rest 8
	D# 1
	rest 1
	F# 1
	rest 1
	E_ 1
	rest 1
	G# 1
	F# 1
	rest 4
	octave 3
	B_ 2
	rest 2
	octave 4
	C# 1
	rest 1
	D# 1
	rest 1
	E_ 1
	F# 1
	rest 2
	C# 1
	rest 1
	D# 1
	rest 1
	E_ 1
	F# 1
	rest 2
	F# 4
	E_ 4
	F# 1
	G# 1
	rest 1
	B_ 1
	rest 1
	F# 2
	rest 1
	C# 2
	rest 2
	D# 2
	rest 2
	E_ 2
	rest 2
	G# 2
	rest 2
	D# 8
	rest 2
	E_ 2
	D# 2
	C# 2
	octave 3
	B_ 2
	rest 2
	octave 4
	C# 2
	rest 2
	D# 2
	rest 2
	F# 2
	rest 2
	C# 8
	rest 2
	D# 2
	C# 2
	octave 3
	B_ 2
	A_ 2
	G# 2
	A_ 2
	G# 1
	F# 1
	rest 8
	B_ 2
	A# 2
	B_ 2
	A_ 1
	G# 1
	rest 4
	G# 2
	rest 2
	F# 2
	F_ 2
	F# 2
	G# 2
	A_ 2
	E_ 2
	C# 2
	E_ 2
	F# 2
	rest 6
	D# 2
	endchannel
Music_UnusedSong_Ch2::
	vibrato 5, 1, 5
	duty 3
	notetype 12, 12, 4
	callchannel Music_UnusedSong_Ch2_sub_0
	rest 6
	callchannel Music_UnusedSong_Ch2_sub_0
	rest 6
	callchannel Music_UnusedSong_Ch2_sub_0
	rest 6
	callchannel Music_UnusedSong_Ch2_sub_0
	endchannel
Music_UnusedSong_Ch3_sub_0:
	E_ 2
	rest 2
	octave 3
	B_ 2
	octave 4
	E_ 2
	rest 2
	E_ 2
	G# 2
	E_ 2
	D# 2
	rest 2
	octave 3
	B_ 2
	octave 4
	D# 2
	rest 2
	D# 2
	G# 2
	D# 2
	C# 2
	rest 2
	octave 3
	A_ 2
	octave 4
	C# 2
	rest 2
	octave 3
	A_ 2
	octave 4
	C# 2
	octave 3
	A_ 2
	octave 4
	D# 4
	C# 2
	octave 3
	B_ 4
	B_ 2
	octave 4
	C# 2
	D# 2
	E_ 2
	rest 2
	octave 3
	B_ 2
	octave 4
	E_ 2
	rest 2
	E_ 2
	G# 2
	E_ 2
	D# 2
	rest 2
	octave 3
	B_ 2
	octave 4
	D# 2
	rest 2
	D# 2
	G# 2
	D# 2
	C# 2
	rest 2
	octave 3
	A_ 2
	octave 4
	C# 2
	rest 2
	octave 3
	A_ 2
	octave 4
	C# 2
	octave 3
	A_ 2
	octave 4
	D# 4
	C# 4
	D# 1
	E_ 1
	rest 1
	F# 1
	rest 1
	C# 2
	rest 1
	C# 4
	D# 4
	E_ 4
	G# 4
	F# 4
	rest 2
	F# 4
	E_ 2
	D# 2
	E_ 2
	octave 3
	B_ 4
	octave 4
	C# 4
	D# 4
	F# 4
	E_ 4
	rest 2
	E_ 4
	E_ 2
	D# 2
	C# 2
	E_ 2
	D# 2
	E_ 2
	F_ 1
	F# 1
	rest 4
	D# 2
	rest 2
	F# 2
	D# 2
	F# 2
	G_ 1
	G# 1
	rest 4
	E_ 2
	rest 2
	A_ 12
	G# 4
	F# 2
	rest 6
	D# 2
	endchannel
Music_UnusedSong_Ch3::
	vibrato 0, 0, 0
	notetype 12, 1, 1
	toggleperfectpitch
	octave 4
	callchannel Music_UnusedSong_Ch3_sub_0
	rest 6
	callchannel Music_UnusedSong_Ch3_sub_0
	rest 6
	callchannel Music_UnusedSong_Ch3_sub_0
	rest 6
	callchannel Music_UnusedSong_Ch3_sub_0
	endchannel
Music_UnusedSong_Ch4_sub_0:
	snare6 6
	snare6 6
	triangle1 6
	triangle1 6
	snare6 2
	snare6 2
	triangle2 6
	triangle1 6
	snare6 4
	triangle1 6
	triangle2 6
	snare6 2
	snare6 2
	triangle1 6
	triangle1 6
	snare6 4
	triangle2 6
	triangle1 6
	snare6 4
	triangle1 6
	triangle2 6
	snare6 4
	triangle1 6
	triangle1 6
	snare6 4
	triangle2 6
	triangle1 6
	snare6 4
	triangle1 6
	triangle2 6
	snare6 2
	snare6 2
	triangle1 6
	triangle1 6
	snare6 4
	triangle2 6
	triangle1 6
	snare6 4
	triangle1 6
	triangle2 6
	snare6 4
	triangle1 6
	triangle1 6
	snare6 4
	triangle2 6
	triangle1 6
	snare6 4
	triangle1 6
	triangle2 6
	snare6 2
	snare6 2
	triangle1 6
	triangle1 6
	snare6 4
	triangle2 6
	triangle1 6
	snare6 2
	snare6 2
	triangle1 6
	triangle2 6
	snare6 4
	triangle1 6
	triangle1 6
	snare6 4
	triangle2 6
	triangle1 6
	snare6 4
	triangle1 6
	triangle2 6
	snare6 2
	snare6 2
	triangle1 6
	triangle1 6
	snare6 4
	triangle2 6
	triangle1 6
	snare6 2
	snare6 2
	triangle1 6
	triangle2 6
	snare6 4
	triangle1 6
	triangle1 6
	snare6 4
	triangle2 6
	triangle1 6
	snare6 2
	snare6 2
	triangle1 6
	triangle2 6
	snare6 4
	triangle1 6
	triangle1 6
	snare6 4
	triangle2 6
	triangle1 6
	snare6 2
	snare6 2
	triangle1 6
	triangle2 6
	snare6 4
	triangle1 6
	triangle1 6
	snare6 4
	endchannel
Music_UnusedSong_Ch4::
	dspeed 12
	snare6 6
	callchannel Music_UnusedSong_Ch4_sub_0
	snare6 6
	callchannel Music_UnusedSong_Ch4_sub_0
	endchannel