Music_ViridianCity_Ch1:
	tempo 151
	volume 7, 7
	vibrato 6, 2, 3
	notetype 12, 11, 1
	rest 16
	rest 16
	callchannel Music_ViridianCity_branch_ed931
Music_ViridianCity_branch_ed8fb:
	octave 3
	B_ 4
	B_ 4
	B_ 4
	B_ 4
	octave 4
	E_ 4
	E_ 4
	E_ 4
	E_ 4
	callchannel Music_ViridianCity_branch_ed931
	callchannel Music_ViridianCity_branch_ed940
	callchannel Music_ViridianCity_branch_ed940
	callchannel Music_ViridianCity_branch_ed971
	octave 3
	G_ 2
	octave 4
	C_ 2
	octave 3
	G_ 2
	octave 4
	C_ 2
	F_ 2
	D_ 2
	octave 3
	B_ 2
	G_ 2
	callchannel Music_ViridianCity_branch_ed971
	G_ 2
	octave 4
	C_ 2
	D_ 2
	G_ 2
	F_ 2
	D_ 2
	octave 3
	B_ 2
	G_ 2
	loopchannel 0, Music_ViridianCity_branch_ed8fb

Music_ViridianCity_branch_ed931:
	octave 4
	C_ 4
	C_ 4
	C_ 4
	C_ 4
	C_ 4
	C_ 4
	C_ 4
	octave 3
	B_ 4
	endchannel

Music_ViridianCity_branch_ed940:
	octave 2
	B_ 2
	octave 3
	E_ 2
	octave 2
	B_ 2
	octave 3
	E_ 2
	octave 2
	B_ 2
	octave 3
	E_ 2
	octave 2
	B_ 2
	octave 3
	E_ 2
	E_ 2
	A# 2
	E_ 2
	A# 2
	E_ 2
	A# 2
	E_ 2
	A# 2
	C_ 2
	A_ 2
	C_ 2
	A_ 2
	C_ 2
	A_ 2
	C_ 2
	A_ 2
	C_ 2
	G# 2
	C_ 2
	G# 2
	octave 2
	B_ 2
	octave 3
	G# 2
	octave 2
	B_ 2
	octave 3
	G_ 2
	endchannel

Music_ViridianCity_branch_ed971:
	B_ 2
	G_ 2
	B_ 2
	G_ 2
	B_ 2
	G# 2
	B_ 2
	G# 2
	octave 4
	E_ 2
	C_ 2
	E_ 2
	C_ 2
	D_ 2
	octave 3
	B_ 2
	octave 4
	D_ 2
	octave 3
	B_ 2
	octave 4
	C_ 2
	octave 3
	A_ 2
	octave 4
	C_ 2
	octave 3
	A_ 2
	octave 4
	C_ 2
	octave 3
	A_ 2
	octave 4
	C_ 2
	octave 3
	A_ 2
	endchannel

Music_ViridianCity_Ch2:
	vibrato 8, 2, 4
	notetype 12, 11, 2
	callchannel Music_ViridianCity_branch_ed9ba
Music_ViridianCity_branch_ed9a1:
	callchannel Music_ViridianCity_branch_ed9ba
	duty 2
	callchannel Music_ViridianCity_branch_ed9dc
	callchannel Music_ViridianCity_branch_ed9dc
	callchannel Music_ViridianCity_branch_eda02
	callchannel Music_ViridianCity_branch_eda02
	loopchannel 0, Music_ViridianCity_branch_ed9a1

Music_ViridianCity_branch_ed9ba:
	octave 4
	E_ 4
	E_ 4
	E_ 2
	octave 2
	C_ 2
	octave 4
	E_ 2
	octave 2
	C_ 2
	octave 4
	A# 4
	A# 4
	A# 2
	octave 2
	G_ 2
	octave 4
	A# 2
	octave 2
	G_ 2
	octave 4
	A_ 4
	A_ 4
	A_ 4
	A_ 4
	G# 4
	G# 4
	G# 4
	G_ 4
	endchannel

Music_ViridianCity_branch_ed9dc:
	octave 2
	C_ 4
	rest 2
	C_ 1
	rest 1
	C_ 1
	rest 1
	C_ 2
	rest 2
	C_ 1
	rest 1
	G_ 4
	rest 2
	G_ 1
	rest 1
	G_ 1
	rest 1
	G_ 2
	rest 2
	G_ 1
	rest 1
	F_ 4
	rest 2
	F_ 1
	rest 1
	F_ 1
	rest 1
	F_ 2
	rest 2
	F_ 1
	rest 1
	F_ 4
	rest 2
	F_ 1
	rest 1
	F_ 4
	D_ 4
	endchannel

Music_ViridianCity_branch_eda02:
	octave 2
	E_ 4
	rest 2
	E_ 1
	rest 1
	E_ 1
	rest 1
	E_ 2
	rest 2
	E_ 1
	rest 1
	A_ 4
	rest 2
	A_ 1
	rest 1
	G# 1
	rest 1
	G# 2
	rest 2
	G# 1
	rest 1
	F_ 4
	rest 2
	F_ 1
	rest 1
	F# 1
	rest 1
	F# 2
	rest 2
	F# 1
	rest 1
	G_ 4
	rest 2
	G_ 1
	rest 1
	G_ 1
	rest 1
	G_ 2
	rest 2
	G_ 1
	rest 1
	endchannel

Music_ViridianCity_Ch3:
	vibrato 16, 1, 5
	notetype 12, 1, 4
	octave 4
	B_ 1
	rest 3
	B_ 1
	rest 3
	B_ 1
	rest 3
	B_ 1
	rest 3
	octave 5
	E_ 1
	rest 3
	E_ 1
	rest 3
	E_ 1
	rest 3
	E_ 1
	rest 3
	callchannel Music_ViridianCity_branch_eda9e
	octave 3
	D_ 4
Music_ViridianCity_branch_eda4b:
	notetype 12, 1, 5
	octave 3
	C_ 4
	rest 2
	C_ 1
	rest 1
	C_ 1
	rest 1
	C_ 2
	rest 2
	C_ 1
	rest 1
	G_ 4
	rest 2
	G_ 1
	rest 1
	G_ 1
	rest 1
	G_ 2
	rest 2
	G_ 1
	rest 1
	callchannel Music_ViridianCity_branch_eda9e
	octave 3
	D_ 2
	octave 6
	C_ 1
	D_ 1
	callchannel Music_ViridianCity_branch_edaaf
	rest 4
	G_ 8
	F_ 2
	G_ 2
	notetype 12, 1, 0
	callchannel Music_ViridianCity_branch_edaaf
	rest 16
	callchannel Music_ViridianCity_branch_edacb
	rest 4
	D# 1
	E_ 7
	D_ 4
	octave 5
	B_ 1
	octave 6
	C_ 3
	octave 5
	B_ 4
	A_ 4
	B_ 8
	G_ 4
	octave 6
	A_ 4
	G_ 4
	callchannel Music_ViridianCity_branch_edacb
	rest 4
	G# 1
	A_ 7
	B_ 4
	F# 1
	G_ 16
	G_ 15
	loopchannel 0, Music_ViridianCity_branch_eda4b

Music_ViridianCity_branch_eda9e:
	octave 3
	F_ 4
	rest 2
	F_ 1
	rest 1
	F_ 1
	rest 1
	F_ 2
	rest 2
	F_ 1
	rest 1
	F_ 4
	rest 2
	F_ 1
	rest 1
	F_ 4
	endchannel

Music_ViridianCity_branch_edaaf:
	octave 6
	E_ 10
	D_ 2
	rest 2
	C_ 2
	notetype 6, 1, 0
	octave 5
	F# 1
	G_ 15
	A_ 4
	A# 4
	rest 4
	octave 6
	C_ 2
	D_ 2
	D# 1
	E_ 16
	E_ 7
	F_ 4
	E_ 4
	D# 1
	E_ 3
	D_ 4
	C_ 4
	D_ 4
	endchannel

Music_ViridianCity_branch_edacb:
	octave 5
	B_ 16
	rest 4
	octave 6
	C# 1
	D_ 7
	E_ 4
	octave 5
	B_ 1
	octave 6
	C_ 16
	C_ 3
	D_ 4
	rest 4
	E_ 4
	F_ 16
	endchannel

Music_ViridianCity_Ch4:
	toggleperfectpitch
	notetype 12, 0, 0
Music_ViridianCity_branch_edae0:
	triangle1 4
	triangle1 4
	triangle1 2
	triangle1 2
	triangle1 2
	triangle1 2
	loopchannel 3, Music_ViridianCity_branch_edae0
	triangle1 4
	triangle1 4
	triangle1 2
	triangle1 2
	triangle1 4
Music_ViridianCity_branch_edaef:
	triangle1 4
	triangle1 4
	triangle1 2
	triangle1 2
	triangle1 2
	triangle1 2
	loopchannel 4, Music_ViridianCity_branch_edaef
Music_ViridianCity_branch_edaf9:
	triangle1 4
	triangle1 2
	triangle1 2
	triangle1 2
	triangle1 2
	triangle1 2
	triangle1 2
	loopchannel 7, Music_ViridianCity_branch_edaf9
	triangle1 4
	triangle1 4
	triangle1 2
	triangle1 2
	triangle1 4
Music_ViridianCity_branch_edb09:
	triangle1 4
	triangle1 4
	triangle1 2
	triangle1 2
	triangle1 4
	loopchannel 3, Music_ViridianCity_branch_edb09
	triangle1 4
	triangle1 4
	triangle1 2
	triangle1 2
	triangle1 4
Music_ViridianCity_branch_edb17:
	triangle1 4
	triangle1 4
	triangle1 2
	triangle1 2
	triangle1 4
	loopchannel 3, Music_ViridianCity_branch_edb17
	triangle1 4
	triangle1 4
	triangle1 2
	triangle1 2
	triangle1 4
	loopchannel 0, Music_ViridianCity_branch_edaef
